<svg width="20" height="20" viewBox="0 0 20 20" fill="none" xmlns="http://www.w3.org/2000/svg">
<path d="M10.275 14.9251H10.2C10.0445 14.1504 9.64559 13.4457 9.06138 12.9138C8.47717 12.3818 7.73825 12.0505 6.95246 11.9682C6.16666 11.8858 5.37511 12.0568 4.69331 12.456C4.01152 12.8553 3.47515 13.462 3.16248 14.1876C2.511 14.1986 1.88765 14.4549 1.41695 14.9055C0.946256 15.356 0.662871 15.9676 0.623406 16.618C0.583941 17.2684 0.791303 17.9097 1.20407 18.4138C1.61683 18.918 2.20461 19.2479 2.84998 19.3376V19.3751H10.275C10.8651 19.3751 11.431 19.1406 11.8483 18.7234C12.2656 18.3061 12.5 17.7402 12.5 17.1501C12.5 16.56 12.2656 15.994 11.8483 15.5767C11.431 15.1595 10.8651 14.9251 10.275 14.9251V14.9251Z" stroke="#7F8A94" stroke-linecap="round" stroke-linejoin="round"/>
<path d="M9.375 13.125V8.125C9.375 7.46196 9.63839 6.82607 10.1072 6.35723C10.5761 5.88839 11.212 5.625 11.875 5.625C12.538 5.625 13.1739 5.88839 13.6428 6.35723C14.1116 6.82607 14.375 7.46196 14.375 8.125V19.375" stroke="#7F8A94" stroke-linecap="round" stroke-linejoin="round"/>
<path d="M6.875 11.25V8.125C6.875 6.79892 7.40178 5.52715 8.33947 4.58947C9.27715 3.65178 10.5489 3.125 11.875 3.125C13.2011 3.125 14.4729 3.65178 15.4105 4.58947C16.3482 5.52715 16.875 6.79892 16.875 8.125V19.375" stroke="#7F8A94" stroke-linecap="round" stroke-linejoin="round"/>
<path d="M4.375 12.5V8.125C4.375 6.13588 5.16518 4.22822 6.5717 2.8217C7.97822 1.41518 9.88588 0.625 11.875 0.625C13.8641 0.625 15.7718 1.41518 17.1783 2.8217C18.5848 4.22822 19.375 6.13588 19.375 8.125V19.375" stroke="#7F8A94" stroke-linecap="round" stroke-linejoin="round"/>
</svg>
