<svg width="22" height="22" viewBox="0 0 22 22" fill="none" xmlns="http://www.w3.org/2000/svg">
<path d="M12.8093 13.8293H9.43311V19.6923C9.43311 20.0392 9.59753 20.3718 9.8902 20.6171C10.1829 20.8623 10.5798 21.0001 10.9937 21.0001H11.2488C11.6627 21.0001 12.0596 20.8623 12.3523 20.6171C12.6449 20.3718 12.8094 20.0392 12.8094 19.6923L12.8093 13.8293Z" stroke="#7F8A94" stroke-width="0.7" stroke-linecap="round" stroke-linejoin="round"/>
<path d="M9.43138 13.8292L1.79297 6.00202L2.06678 6.08953C3.86807 6.66524 5.8581 6.67056 7.66374 6.10452L8.17299 5.94487C10.0654 5.35162 12.1568 5.38694 14.0192 6.04359C15.7397 6.6502 17.6605 6.7281 19.4428 6.26352L20.446 6.00202L12.8076 13.8292H9.43138Z" stroke="#7F8A94" stroke-width="0.7" stroke-linecap="round" stroke-linejoin="round"/>
<path d="M13.3125 3.97662C12.99 3.21798 12.3891 2.56444 11.5959 2.10977C11.1781 1.85436 10.7311 1.63424 10.2616 1.45261C9.83199 1.27949 9.38561 1.1373 8.92726 1.02759V4.57494C8.92537 4.96628 9.07607 5.34743 9.35644 5.66039" stroke="#7F8A94" stroke-width="0.7" stroke-linecap="round" stroke-linejoin="round"/>
<path d="M12.834 5.71597C13.1449 5.39279 13.3143 4.99007 13.3139 4.57494V1.02759C12.8581 1.12124 12.4363 1.30638 12.0849 1.56704V1.57032C11.8838 1.72322 11.7184 1.90615 11.5972 2.10977" stroke="#7F8A94" stroke-width="0.7" stroke-linecap="round" stroke-linejoin="round"/>
<path d="M10.2612 1.45153L10.3962 1.30176C10.4807 1.20802 10.5901 1.13197 10.7156 1.07961C10.8411 1.02725 10.9794 1 11.1196 1C11.2598 1 11.3981 1.02725 11.5236 1.07961C11.6491 1.13197 11.7585 1.20802 11.843 1.30176L12.084 1.56911" stroke="#7F8A94" stroke-width="0.7" stroke-linecap="round" stroke-linejoin="round"/>
<path d="M18.5451 6.44902C18.9306 5.73441 19.045 4.93781 18.8728 4.16695C18.7933 3.73888 18.664 3.31837 18.4865 2.91148C18.328 2.53555 18.1322 2.17137 17.9013 1.82275L14.9089 4.33042C14.7043 4.50025 14.5421 4.70245 14.4316 4.92527C14.3211 5.14809 14.2645 5.38709 14.2651 5.62839C14.2651 5.80677 14.2966 5.98416 14.3588 6.15477" stroke="#7F8A94" stroke-width="0.7" stroke-linecap="round" stroke-linejoin="round"/>
<path d="M18.585 6.44238L21 4.4186C20.5996 4.21464 20.1452 4.09672 19.6774 4.0753C19.405 4.06389 19.1325 4.09493 18.8737 4.16685" stroke="#7F8A94" stroke-width="0.7" stroke-linecap="round" stroke-linejoin="round"/>
<path d="M18.4854 2.9111L18.7072 2.8852C18.8461 2.86898 18.9875 2.87998 19.1205 2.91733C19.2534 2.95468 19.3742 3.01735 19.4733 3.10043C19.5725 3.18351 19.6473 3.28473 19.6918 3.39612C19.7364 3.50752 19.7495 3.62606 19.7302 3.74242L19.675 4.07428" stroke="#7F8A94" stroke-width="0.7" stroke-linecap="round" stroke-linejoin="round"/>
<path d="M3.43814 6.41281C3.06644 5.70752 2.95896 4.92428 3.12993 4.1667C3.20936 3.73863 3.33873 3.31813 3.51617 2.91123C3.67473 2.5353 3.87048 2.17113 4.10139 1.82251L7.09382 4.33017C7.36625 4.55821 7.5623 4.8423 7.66229 5.15391C7.76227 5.46553 7.76267 5.7937 7.66344 6.10548H7.65953" stroke="#7F8A94" stroke-width="0.7" stroke-linecap="round" stroke-linejoin="round"/>
<path d="M3.36429 6.39988L1 4.4186C1.402 4.21496 1.85748 4.09709 2.3265 4.0753C2.59885 4.06389 2.87137 4.09493 3.1302 4.16685" stroke="#7F8A94" stroke-width="0.7" stroke-linecap="round" stroke-linejoin="round"/>
<path d="M3.51524 2.9111L3.29339 2.8852C3.15452 2.86898 3.01305 2.87998 2.88012 2.91733C2.74718 2.95468 2.62639 3.01735 2.52725 3.10043C2.4281 3.18351 2.35331 3.28473 2.30874 3.39612C2.26417 3.50752 2.25104 3.62606 2.27039 3.74242L2.32557 4.07428" stroke="#7F8A94" stroke-width="0.7" stroke-linecap="round" stroke-linejoin="round"/>
<path d="M11.1733 7.94263V11.3878" stroke="#7F8A94" stroke-width="0.7" stroke-linecap="round" stroke-linejoin="round"/>
<path d="M16.045 7.94263L13.314 11.3878" stroke="#7F8A94" stroke-width="0.7" stroke-linecap="round" stroke-linejoin="round"/>
<path d="M6.22607 7.94263L8.95712 11.3878" stroke="#7F8A94" stroke-width="0.7" stroke-linecap="round" stroke-linejoin="round"/>
<path d="M17.5409 18.466C15.0654 17.7535 12.8081 13.8293 12.8081 13.8293" stroke="#7F8A94" stroke-width="0.7" stroke-linecap="round" stroke-linejoin="round"/>
<path d="M16.0329 15.8868C15.0506 15.6875 13.4573 14.3051 12.9507 13.6834C13.7517 13.2739 15.9121 12.7066 16.8944 12.9059C17.3661 13.0017 17.7731 13.2505 18.0258 13.5977C18.2786 13.9449 18.3564 14.3621 18.2422 14.7574C18.1279 15.1526 17.831 15.4937 17.4167 15.7055C17.0023 15.9173 16.5046 15.9826 16.0329 15.8868Z" stroke="#7F8A94" stroke-width="0.7" stroke-linecap="round" stroke-linejoin="round"/>
<path d="M12.8093 13.8293L9.43311 15.814" stroke="#7F8A94" stroke-width="0.7" stroke-linecap="round" stroke-linejoin="round"/>
<path d="M12.8093 15.4302L9.43311 17.4148" stroke="#7F8A94" stroke-width="0.7" stroke-linecap="round" stroke-linejoin="round"/>
<path d="M12.8093 17.0308L9.43311 19.0154" stroke="#7F8A94" stroke-width="0.7" stroke-linecap="round" stroke-linejoin="round"/>
<path d="M12.8076 18.6316L9.71826 20.4476" stroke="#7F8A94" stroke-width="0.7" stroke-linecap="round" stroke-linejoin="round"/>
</svg>
