<svg width="20" height="20" viewBox="0 0 20 20" fill="none" xmlns="http://www.w3.org/2000/svg">
<g clip-path="url(#clip0_190_2604)">
<path d="M4.81429 3.40477C3.89038 3.99823 3.20441 4.89751 2.87629 5.94544C2.85028 6.02905 2.84099 6.11696 2.84896 6.20416C2.85693 6.29136 2.88199 6.37613 2.92273 6.45364C2.96346 6.53115 3.01907 6.59987 3.08637 6.65589C3.15367 6.7119 3.23134 6.75411 3.31496 6.78011C3.37959 6.80082 3.44709 6.81117 3.51496 6.81077C3.65683 6.81078 3.795 6.76553 3.90939 6.6816C4.02377 6.59767 4.10839 6.47944 4.15096 6.34411C4.38448 5.59493 4.87389 4.95167 5.53362 4.52677C5.61002 4.48082 5.67642 4.42001 5.72891 4.34795C5.78139 4.27588 5.81889 4.19402 5.83918 4.1072C5.85946 4.02039 5.86214 3.93039 5.84703 3.84253C5.83192 3.75466 5.79935 3.67072 5.75123 3.59567C5.70311 3.52062 5.64043 3.45598 5.56689 3.40558C5.49336 3.35518 5.41046 3.32004 5.3231 3.30224C5.23574 3.28444 5.1457 3.28434 5.05831 3.30196C4.97091 3.31957 4.88794 3.35453 4.81429 3.40477Z" fill="#7F8A94"/>
<path d="M19.8049 16.862L15.8049 12.862C15.6799 12.737 15.5103 12.6668 15.3336 12.6668C15.1568 12.6668 14.9873 12.737 14.8622 12.862L14.3336 13.3907L12.9656 12.0227C14.1753 10.5703 14.7786 8.70751 14.6498 6.82174C14.5211 4.93596 13.6703 3.17241 12.2744 1.89795C10.8785 0.623492 9.04503 -0.0637484 7.15535 -0.0208075C5.26567 0.0221335 3.46529 0.79195 2.12874 2.1285C0.792194 3.46505 0.0223777 5.26543 -0.0205633 7.15511C-0.0635043 9.04479 0.623737 10.8783 1.89819 12.2742C3.17265 13.67 4.9362 14.5208 6.82198 14.6496C8.70776 14.7783 10.5706 14.1751 12.0229 12.9653L13.3909 14.3333L12.8622 14.862C12.7373 14.987 12.667 15.1566 12.667 15.3333C12.667 15.5101 12.7373 15.6796 12.8622 15.8047L16.8622 19.8047C16.9873 19.9296 17.1568 19.9999 17.3336 19.9999C17.5103 19.9999 17.6799 19.9296 17.8049 19.8047L19.8049 17.8047C19.9299 17.6796 20.0001 17.5101 20.0001 17.3333C20.0001 17.1566 19.9299 16.987 19.8049 16.862ZM7.33357 13.3333C6.14688 13.3333 4.98685 12.9814 4.00015 12.3221C3.01346 11.6629 2.24442 10.7258 1.7903 9.62943C1.33617 8.53307 1.21735 7.32667 1.44886 6.16279C1.68037 4.9989 2.25182 3.9298 3.09093 3.09069C3.93005 2.25157 4.99914 1.68013 6.16303 1.44862C7.32692 1.21711 8.53332 1.33593 9.62967 1.79005C10.726 2.24418 11.6631 3.01321 12.3224 3.99991C12.9817 4.9866 13.3336 6.14664 13.3336 7.33333C13.3316 8.92403 12.6989 10.449 11.5741 11.5738C10.4493 12.6986 8.92428 13.3314 7.33357 13.3333ZM17.3336 18.3907L14.2762 15.3333L15.3336 14.276L18.3909 17.3333L17.3336 18.3907Z" fill="#7F8A94"/>
</g>
<defs>
<clipPath id="clip0_190_2604">
<rect width="20" height="20" fill="white"/>
</clipPath>
</defs>
</svg>
