<svg width="20" height="20" viewBox="0 0 20 20" fill="none" xmlns="http://www.w3.org/2000/svg">
<mask id="path-1-inside-1_190_2544" fill="white">
<path d="M19.2857 11.4073C19.4751 11.4073 19.6568 11.3319 19.7908 11.1976C19.9247 11.0633 20 10.8812 20 10.6912V9.6458C20.0007 9.40935 19.9431 9.17641 19.8321 8.96774C19.7212 8.75908 19.5605 8.5812 19.3643 8.44998L13.65 4.63339C13.4152 4.47637 13.1393 4.39258 12.8571 4.39258C12.5749 4.39258 12.299 4.47637 12.0643 4.63339L9.28571 6.48798V4.38277C9.28571 4.3398 9.28571 4.28968 9.28571 4.24672C9.47515 4.24672 9.65683 4.17127 9.79079 4.03699C9.92474 3.9027 10 3.72057 10 3.53066C10 3.34075 9.92474 3.15861 9.79079 3.02433C9.65683 2.89004 9.47515 2.8146 9.28571 2.8146H9.01428C8.70962 1.93079 8.11873 1.17459 7.33571 0.666423C6.63414 0.230791 5.82525 0 5 0C4.17475 0 3.36586 0.230791 2.66428 0.666423C1.88127 1.17459 1.29038 1.93079 0.985714 2.8146H0.714285C0.524845 2.8146 0.343164 2.89004 0.209209 3.02433C0.0752548 3.15861 0 3.34075 0 3.53066C0 3.72057 0.0752548 3.9027 0.209209 4.03699C0.343164 4.17127 0.524845 4.24672 0.714285 4.24672C0.714285 4.28968 0.714285 4.3398 0.714285 4.38277V7.11095C0.524845 7.11095 0.343164 7.18639 0.209209 7.32068C0.0752548 7.45496 0 7.6371 0 7.82701C0 8.01692 0.0752548 8.19905 0.209209 8.33334C0.343164 8.46762 0.524845 8.54307 0.714285 8.54307V11.4073C0.524845 11.4073 0.343164 11.4827 0.209209 11.617C0.0752548 11.7513 0 11.9334 0 12.1234C0 12.3133 0.0752548 12.4954 0.209209 12.6297C0.343164 12.764 0.524845 12.8394 0.714285 12.8394V15.7036C0.524845 15.7036 0.343164 15.7791 0.209209 15.9134C0.0752548 16.0477 0 16.2298 0 16.4197C0 16.6096 0.0752548 16.7918 0.209209 16.926C0.343164 17.0603 0.524845 17.1358 0.714285 17.1358V19.2839C0.714285 19.4739 0.78954 19.656 0.923495 19.7903C1.05745 19.9246 1.23913 20 1.42857 20H18.5714C18.9503 20 19.3137 19.8491 19.5816 19.5805C19.8495 19.312 20 18.9477 20 18.5679V13.5555C20 13.3656 19.9247 13.1834 19.7908 13.0491C19.6568 12.9149 19.4751 12.8394 19.2857 12.8394C19.0963 12.8394 18.9146 12.9149 18.7806 13.0491C18.6467 13.1834 18.5714 13.3656 18.5714 13.5555V18.5679H17.1429V14.2715C17.1429 14.0816 17.0676 13.8995 16.9336 13.7652C16.7997 13.6309 16.618 13.5555 16.4286 13.5555H9.28571C9.09627 13.5555 8.91459 13.6309 8.78064 13.7652C8.64668 13.8995 8.57143 14.0816 8.57143 14.2715V18.5679H7.14285V9.63863L12.8571 5.82204L18.5714 9.6458V10.6912C18.5714 10.8812 18.6467 11.0633 18.7806 11.1976C18.9146 11.3319 19.0963 11.4073 19.2857 11.4073ZM3.42857 1.84076C3.90006 1.54624 4.44447 1.39012 5 1.39012C5.55553 1.39012 6.09994 1.54624 6.57143 1.84076C6.94599 2.08495 7.25307 2.41989 7.46428 2.8146H2.53571C2.74693 2.41989 3.05401 2.08495 3.42857 1.84076ZM2.14286 12.8394H5.71428V15.7036H2.14286V12.8394ZM2.14286 17.1358H5.71428V18.5679H2.14286V17.1358ZM10 14.9876H15.7143V18.5679H10V14.9876ZM6.35 8.44998C6.1538 8.5812 5.99306 8.75908 5.88214 8.96774C5.77121 9.17641 5.71354 9.40935 5.71428 9.6458V11.4073H2.14286V8.54307H5C5.18944 8.54307 5.37112 8.46762 5.50507 8.33334C5.63903 8.19905 5.71428 8.01692 5.71428 7.82701C5.71428 7.6371 5.63903 7.45496 5.50507 7.32068C5.37112 7.18639 5.18944 7.11095 5 7.11095H2.14286V4.38277C2.14286 4.3398 2.14286 4.28968 2.14286 4.24672H7.85714C7.85714 4.28968 7.85714 4.3398 7.85714 4.38277V7.44034L6.35 8.44998Z"/>
</mask>
<path d="M19.2857 11.4073C19.4751 11.4073 19.6568 11.3319 19.7908 11.1976C19.9247 11.0633 20 10.8812 20 10.6912V9.6458C20.0007 9.40935 19.9431 9.17641 19.8321 8.96774C19.7212 8.75908 19.5605 8.5812 19.3643 8.44998L13.65 4.63339C13.4152 4.47637 13.1393 4.39258 12.8571 4.39258C12.5749 4.39258 12.299 4.47637 12.0643 4.63339L9.28571 6.48798V4.38277C9.28571 4.3398 9.28571 4.28968 9.28571 4.24672C9.47515 4.24672 9.65683 4.17127 9.79079 4.03699C9.92474 3.9027 10 3.72057 10 3.53066C10 3.34075 9.92474 3.15861 9.79079 3.02433C9.65683 2.89004 9.47515 2.8146 9.28571 2.8146H9.01428C8.70962 1.93079 8.11873 1.17459 7.33571 0.666423C6.63414 0.230791 5.82525 0 5 0C4.17475 0 3.36586 0.230791 2.66428 0.666423C1.88127 1.17459 1.29038 1.93079 0.985714 2.8146H0.714285C0.524845 2.8146 0.343164 2.89004 0.209209 3.02433C0.0752548 3.15861 0 3.34075 0 3.53066C0 3.72057 0.0752548 3.9027 0.209209 4.03699C0.343164 4.17127 0.524845 4.24672 0.714285 4.24672C0.714285 4.28968 0.714285 4.3398 0.714285 4.38277V7.11095C0.524845 7.11095 0.343164 7.18639 0.209209 7.32068C0.0752548 7.45496 0 7.6371 0 7.82701C0 8.01692 0.0752548 8.19905 0.209209 8.33334C0.343164 8.46762 0.524845 8.54307 0.714285 8.54307V11.4073C0.524845 11.4073 0.343164 11.4827 0.209209 11.617C0.0752548 11.7513 0 11.9334 0 12.1234C0 12.3133 0.0752548 12.4954 0.209209 12.6297C0.343164 12.764 0.524845 12.8394 0.714285 12.8394V15.7036C0.524845 15.7036 0.343164 15.7791 0.209209 15.9134C0.0752548 16.0477 0 16.2298 0 16.4197C0 16.6096 0.0752548 16.7918 0.209209 16.926C0.343164 17.0603 0.524845 17.1358 0.714285 17.1358V19.2839C0.714285 19.4739 0.78954 19.656 0.923495 19.7903C1.05745 19.9246 1.23913 20 1.42857 20H18.5714C18.9503 20 19.3137 19.8491 19.5816 19.5805C19.8495 19.312 20 18.9477 20 18.5679V13.5555C20 13.3656 19.9247 13.1834 19.7908 13.0491C19.6568 12.9149 19.4751 12.8394 19.2857 12.8394C19.0963 12.8394 18.9146 12.9149 18.7806 13.0491C18.6467 13.1834 18.5714 13.3656 18.5714 13.5555V18.5679H17.1429V14.2715C17.1429 14.0816 17.0676 13.8995 16.9336 13.7652C16.7997 13.6309 16.618 13.5555 16.4286 13.5555H9.28571C9.09627 13.5555 8.91459 13.6309 8.78064 13.7652C8.64668 13.8995 8.57143 14.0816 8.57143 14.2715V18.5679H7.14285V9.63863L12.8571 5.82204L18.5714 9.6458V10.6912C18.5714 10.8812 18.6467 11.0633 18.7806 11.1976C18.9146 11.3319 19.0963 11.4073 19.2857 11.4073ZM3.42857 1.84076C3.90006 1.54624 4.44447 1.39012 5 1.39012C5.55553 1.39012 6.09994 1.54624 6.57143 1.84076C6.94599 2.08495 7.25307 2.41989 7.46428 2.8146H2.53571C2.74693 2.41989 3.05401 2.08495 3.42857 1.84076ZM2.14286 12.8394H5.71428V15.7036H2.14286V12.8394ZM2.14286 17.1358H5.71428V18.5679H2.14286V17.1358ZM10 14.9876H15.7143V18.5679H10V14.9876ZM6.35 8.44998C6.1538 8.5812 5.99306 8.75908 5.88214 8.96774C5.77121 9.17641 5.71354 9.40935 5.71428 9.6458V11.4073H2.14286V8.54307H5C5.18944 8.54307 5.37112 8.46762 5.50507 8.33334C5.63903 8.19905 5.71428 8.01692 5.71428 7.82701C5.71428 7.6371 5.63903 7.45496 5.50507 7.32068C5.37112 7.18639 5.18944 7.11095 5 7.11095H2.14286V4.38277C2.14286 4.3398 2.14286 4.28968 2.14286 4.24672H7.85714C7.85714 4.28968 7.85714 4.3398 7.85714 4.38277V7.44034L6.35 8.44998Z" fill="white" stroke="#7F8A94" stroke-width="2" mask="url(#path-1-inside-1_190_2544)"/>
<path d="M11.9981 10.8345L12.3521 10.4814L11.9981 10.8345C12.1679 11.0047 12.3843 11.1207 12.6201 11.1677C12.8559 11.2147 13.1003 11.1906 13.3223 11.0984L13.1306 10.6366L13.3223 11.0984C13.5443 11.0062 13.7339 10.8502 13.8672 10.6502C14.0004 10.4503 14.0715 10.2153 14.0715 9.97508C14.0715 9.65296 13.9439 9.34379 13.7163 9.11563L13.3623 9.46875L13.7163 9.11563C13.4887 8.88744 13.1797 8.75902 12.8572 8.75902C12.6168 8.75902 12.3818 8.8305 12.1821 8.96428L12.4604 9.3797L12.1821 8.96428C11.9824 9.09805 11.8269 9.28805 11.7352 9.51012C11.6434 9.73217 11.6195 9.97644 11.6662 10.2121C11.713 10.4477 11.8284 10.6644 11.9981 10.8345ZM14.3748 9.34395L14.837 9.15301L14.3748 9.34395C14.4993 9.64526 14.5319 9.9769 14.4685 10.2969C14.405 10.6168 14.2483 10.9105 14.0184 11.141C13.7886 11.3714 13.4959 11.5281 13.1775 11.5916C12.859 11.6551 12.529 11.6226 12.2289 11.498C11.9289 11.3734 11.6722 11.1623 11.4915 10.8912C11.3109 10.6202 11.2144 10.3013 11.2144 9.97508C11.2144 9.53756 11.3877 9.1182 11.696 8.8092C12.0042 8.50025 12.4219 8.3269 12.8572 8.3269C13.1819 8.3269 13.4993 8.42341 13.7695 8.60435C14.0396 8.78531 14.2504 9.04264 14.3748 9.34395Z" fill="white" stroke="#7F8A94"/>
</svg>
