<svg width="20" height="20" viewBox="0 0 20 20" fill="none" xmlns="http://www.w3.org/2000/svg">
<path d="M3.33103 9.51875C2.57149 9.40544 1.87876 9.02068 1.38118 8.43575C0.883586 7.85083 0.614859 7.10538 0.624777 6.3375C0.614752 5.49756 0.937991 4.68787 1.52371 4.08575C2.10942 3.48364 2.90988 3.13817 3.74978 3.125C4.58968 3.13817 5.39013 3.48364 5.97585 4.08575C6.56156 4.68787 6.8848 5.49756 6.87478 6.3375" stroke="#7F8A94" stroke-linecap="round" stroke-linejoin="round"/>
<path d="M12.3248 18.125H4.03726C3.82169 18.121 3.60944 18.0712 3.41461 17.9789C3.21979 17.8865 3.04686 17.7538 2.90733 17.5894C2.76779 17.425 2.66485 17.2328 2.60536 17.0256C2.54586 16.8184 2.53117 16.6009 2.56226 16.3875L3.81226 6.71875H11.9373L13.8123 16.2875C13.8586 16.509 13.8551 16.7381 13.802 16.9582C13.7488 17.1782 13.6473 17.3836 13.5049 17.5595C13.3625 17.7355 13.1827 17.8775 12.9786 17.9753C12.7745 18.0731 12.5511 18.1242 12.3248 18.125Z" stroke="#7F8A94" stroke-linecap="round" stroke-linejoin="round"/>
<path d="M19.3752 10.6249C19.1733 10.8359 18.9308 11.0038 18.6622 11.1185C18.3937 11.2333 18.1047 11.2924 17.8127 11.2924C17.5207 11.2924 17.2317 11.2333 16.9631 11.1185C16.6946 11.0038 16.4521 10.8359 16.2502 10.6249C15.8346 10.191 15.6025 9.61328 15.6025 9.0124C15.6025 8.41153 15.8346 7.83385 16.2502 7.3999L19.3752 10.6249Z" stroke="#7F8A94" stroke-linecap="round" stroke-linejoin="round"/>
<path d="M12.6689 9.76245H15.6002" stroke="#7F8A94" stroke-linecap="round" stroke-linejoin="round"/>
<path d="M17.5002 11.25L13.4189 14.4313" stroke="#7F8A94" stroke-linecap="round" stroke-linejoin="round"/>
<path d="M12.6688 9.76245H3.8125" stroke="#7F8A94" stroke-linecap="round" stroke-linejoin="round"/>
</svg>
