<svg width="20" height="20" viewBox="0 0 20 20" fill="none" xmlns="http://www.w3.org/2000/svg">
<g clip-path="url(#clip0_185_3882)">
<path d="M10 0.625L1.03755 7.2C0.908593 7.29235 0.803781 7.4144 0.731979 7.55583C0.660177 7.69726 0.623499 7.8539 0.625047 8.0125V8.0125C0.626445 8.19843 0.679016 8.38039 0.776996 8.53842C0.874976 8.69645 1.01458 8.82445 1.1805 8.90838C1.34642 8.99231 1.53225 9.02892 1.7176 9.01422C1.90296 8.99951 2.08069 8.93404 2.2313 8.825L10 3.125L17.7688 8.825C17.9194 8.93404 18.0971 8.99951 18.2825 9.01422C18.4678 9.02892 18.6537 8.99231 18.8196 8.90838C18.9855 8.82445 19.1251 8.69645 19.2231 8.53842C19.3211 8.38039 19.3736 8.19843 19.375 8.0125V8.0125C19.3766 7.8539 19.3399 7.69726 19.2681 7.55583C19.1963 7.4144 19.0915 7.29235 18.9625 7.2L10 0.625Z" stroke="#7F8A94" stroke-linecap="round" stroke-linejoin="round"/>
<path d="M16.5625 15H3.4375C2.91973 15 2.5 15.4197 2.5 15.9375C2.5 16.4553 2.91973 16.875 3.4375 16.875H16.5625C17.0803 16.875 17.5 16.4553 17.5 15.9375C17.5 15.4197 17.0803 15 16.5625 15Z" stroke="#7F8A94" stroke-linecap="round" stroke-linejoin="round"/>
<path d="M16.25 8.125V15H3.75V8.125" stroke="#7F8A94" stroke-linecap="round" stroke-linejoin="round"/>
<path d="M8.125 19.375V16.875H11.875V19.375" stroke="#7F8A94" stroke-linecap="round" stroke-linejoin="round"/>
<path d="M10 10.625C11.2081 10.625 12.1875 9.64562 12.1875 8.4375C12.1875 7.22938 11.2081 6.25 10 6.25C8.79188 6.25 7.8125 7.22938 7.8125 8.4375C7.8125 9.64562 8.79188 10.625 10 10.625Z" stroke="#7F8A94" stroke-linecap="round" stroke-linejoin="round"/>
</g>
<defs>
<clipPath id="clip0_185_3882">
<rect width="20" height="20" fill="white"/>
</clipPath>
</defs>
</svg>
