<svg width="17" height="16" viewBox="0 0 17 16" fill="none" xmlns="http://www.w3.org/2000/svg">
<path d="M5.37145 7.90568C5.45561 8.06168 5.61564 8.15893 5.7897 8.15893H8.5V13.5105C8.5 13.7807 8.71422 14 8.97817 14C9.24213 14 9.45635 13.7807 9.45635 13.5105V8.15893H12.1666C12.3413 8.15893 12.5014 8.06168 12.5849 7.90568C12.6697 7.74969 12.6639 7.5591 12.5715 7.40832L9.38303 2.22845C9.29504 2.08616 9.14267 2 8.97817 2C8.81368 2 8.6613 2.08616 8.57332 2.22845L5.38484 7.40832C5.33639 7.48795 5.31152 7.57868 5.31152 7.6694C5.31152 7.75034 5.33193 7.83193 5.37145 7.90568Z" fill="#4DCAB9"/>
</svg>
