<svg width="17" height="16" viewBox="0 0 17 16" fill="none" xmlns="http://www.w3.org/2000/svg">
<path d="M12.1982 8.09432C12.114 7.93832 11.954 7.84107 11.78 7.84107H9.06966V2.48953C9.06966 2.21931 8.85544 2 8.59149 2C8.32754 2 8.11331 2.21931 8.11331 2.48953V7.84107H5.40301C5.22832 7.84107 5.06829 7.93832 4.98477 8.09432C4.89997 8.25031 4.90571 8.4409 4.99816 8.59168L8.18663 13.7716C8.27462 13.9138 8.427 14 8.59149 14C8.75598 14 8.90836 13.9138 8.99634 13.7716L12.1848 8.59168C12.2333 8.51205 12.2581 8.42132 12.2581 8.3306C12.2581 8.24966 12.2377 8.16807 12.1982 8.09432Z" fill="#FE5050"/>
</svg>
