<svg width="18" height="20" viewBox="0 0 18 20" fill="none" xmlns="http://www.w3.org/2000/svg">
<path d="M16.7645 17.5084C17.3167 17.5047 17.7615 17.0541 17.7578 16.5018C17.7541 15.9495 17.3034 15.5048 16.7512 15.5085L16.7645 17.5084ZM10.9525 15.547C10.4003 15.5506 9.95552 16.0013 9.95919 16.5536C9.96286 17.1059 10.4135 17.5506 10.9658 17.5469L10.9525 15.547ZM7.6523 17.5689C8.20457 17.5653 8.6493 17.1146 8.64563 16.5623C8.64196 16.01 8.19128 15.5653 7.63901 15.569L7.6523 17.5689ZM1.84036 15.6075C1.28809 15.6112 0.84336 16.0619 0.847028 16.6141C0.850697 17.1664 1.30138 17.6111 1.85365 17.6075L1.84036 15.6075ZM16.7199 10.967C17.2721 10.9633 17.7169 10.5126 17.7132 9.96034C17.7095 9.40807 17.2588 8.96334 16.7066 8.96701L16.7199 10.967ZM9.25117 9.01653C8.6989 9.0202 8.25417 9.47088 8.25783 10.0232C8.2615 10.5754 8.71218 11.0202 9.26445 11.0165L9.25117 9.01653ZM5.95094 11.0385C6.50322 11.0348 6.94795 10.5841 6.94428 10.0319C6.94061 9.4796 6.48993 9.03487 5.93766 9.03854L5.95094 11.0385ZM1.79577 9.06605C1.24349 9.06972 0.798763 9.5204 0.802431 10.0727C0.8061 10.6249 1.25678 11.0697 1.80905 11.066L1.79577 9.06605ZM16.6753 4.42551C17.2275 4.42184 17.6723 3.97116 17.6686 3.41889C17.6649 2.86662 17.2142 2.42189 16.662 2.42555L16.6753 4.42551ZM12.5201 2.45307C11.9678 2.45674 11.5231 2.90741 11.5268 3.45969C11.5304 4.01196 11.9811 4.45669 12.5334 4.45302L12.5201 2.45307ZM9.21986 4.47503C9.77213 4.47136 10.2169 4.02069 10.2132 3.46841C10.2095 2.91614 9.75885 2.47141 9.20657 2.47508L9.21986 4.47503ZM1.75117 2.5246C1.1989 2.52827 0.754166 2.97895 0.757835 3.53122C0.761503 4.08349 1.21218 4.52823 1.76446 4.52456L1.75117 2.5246ZM9.97591 19.0068C9.97968 19.5591 10.4304 20.0037 10.9827 20C11.535 19.9962 11.9796 19.5455 11.9759 18.9932L9.97591 19.0068ZM11.9424 14.0871C11.9387 13.5348 11.4879 13.0902 10.9356 13.0939C10.3834 13.0977 9.9387 13.5485 9.94246 14.1007L11.9424 14.0871ZM4.96105 12.4984C4.96481 13.0507 5.41557 13.4953 5.96784 13.4915C6.52011 13.4878 6.96477 13.037 6.961 12.4847L4.96105 12.4984ZM6.92755 7.57866C6.92379 7.02638 6.47303 6.58173 5.92076 6.5855C5.36849 6.58926 4.92383 7.04002 4.9276 7.59229L6.92755 7.57866ZM11.5435 5.91291C11.5472 6.46518 11.998 6.90983 12.5503 6.90607C13.1025 6.9023 13.5472 6.45154 13.5434 5.89927L11.5435 5.91291ZM13.51 0.993183C13.5062 0.440911 13.0555 -0.00374198 12.5032 2.32458e-05C11.9509 0.00378841 11.5063 0.454546 11.51 1.00682L13.51 0.993183ZM16.7512 15.5085L10.9525 15.547L10.9658 17.5469L16.7645 17.5084L16.7512 15.5085ZM7.63901 15.569L1.84036 15.6075L1.85365 17.6075L7.6523 17.5689L7.63901 15.569ZM16.7066 8.96701L9.25117 9.01653L9.26445 11.0165L16.7199 10.967L16.7066 8.96701ZM5.93766 9.03854L1.79577 9.06605L1.80905 11.066L5.95094 11.0385L5.93766 9.03854ZM16.662 2.42555L12.5201 2.45307L12.5334 4.45302L16.6753 4.42551L16.662 2.42555ZM9.20657 2.47508L1.75117 2.5246L1.76446 4.52456L9.21986 4.47503L9.20657 2.47508ZM11.9759 18.9932L11.9424 14.0871L9.94246 14.1007L9.97591 19.0068L11.9759 18.9932ZM6.961 12.4847L6.92755 7.57866L4.9276 7.59229L4.96105 12.4984L6.961 12.4847ZM13.5434 5.89927L13.51 0.993183L11.51 1.00682L11.5435 5.91291L13.5434 5.89927Z" fill="url(#paint0_linear_190_7820)"/>
<defs>
<linearGradient id="paint0_linear_190_7820" x1="-5.74219" y1="10" x2="11.9627" y2="24.7541" gradientUnits="userSpaceOnUse">
<stop stop-color="#B3B1FF"/>
<stop offset="1" stop-color="#B4F6ED"/>
</linearGradient>
</defs>
</svg>
