<svg width="18" height="15" viewBox="0 0 18 15" fill="none" xmlns="http://www.w3.org/2000/svg">
<path d="M17.5375 9.34211C17.2813 9.09776 16.9505 8.94646 16.598 8.91246C16.2456 8.87847 15.892 8.96374 15.5938 9.15461L14.875 9.61086C14.4983 8.89959 13.965 8.28309 13.3155 7.80782C12.6659 7.33255 11.9169 7.0109 11.125 6.86711V4.64836C11.2172 4.6014 11.2963 4.53227 11.3552 4.44718C11.4141 4.36209 11.451 4.26371 11.4625 4.16086C11.5061 3.76434 11.63 3.38085 11.8266 3.03378C12.0233 2.6867 12.2885 2.38331 12.6063 2.14211C13.0577 1.83552 13.5994 1.69019 14.1438 1.72961C13.9746 2.33118 13.6095 2.85908 13.1063 3.22961C12.9329 3.33999 12.7486 3.43215 12.5563 3.50461C12.4004 3.56346 12.2744 3.68179 12.2058 3.83358C12.1372 3.98536 12.1318 4.15817 12.1906 4.31399C12.2495 4.4698 12.3678 4.59586 12.5196 4.66443C12.6714 4.73299 12.8442 4.73846 13 4.67961C13.293 4.57957 13.5723 4.44308 13.8313 4.27336C14.2996 3.9251 14.69 3.48276 14.9774 2.97474C15.2648 2.46671 15.4428 1.90422 15.5 1.32336C15.5088 1.19012 15.4748 1.05755 15.4028 0.945076C15.3308 0.832603 15.2247 0.746142 15.1 0.698362C14.5679 0.513476 13.9996 0.456737 13.4414 0.532756C12.8832 0.608775 12.3508 0.815406 11.8875 1.13586C11.2598 1.58283 10.7773 2.20442 10.5 2.92336C10.2206 2.209 9.73827 1.59199 9.1125 1.14836C8.64939 0.827444 8.11698 0.620533 7.5587 0.544502C7.00041 0.468472 6.43207 0.525474 5.9 0.710862C5.77531 0.758642 5.66919 0.845103 5.59721 0.957576C5.52523 1.07005 5.49116 1.20262 5.5 1.33586C5.55888 1.91454 5.73768 2.47461 6.02499 2.98037C6.3123 3.48613 6.70183 3.92648 7.16875 4.27336C7.78718 4.67918 8.51031 4.89634 9.25 4.89836C9.46017 4.89749 9.66967 4.87445 9.875 4.82961V6.77336C8.94448 6.82618 8.04486 7.12606 7.26875 7.64211C6.86185 7.47739 6.42646 7.39456 5.9875 7.39836H3.625C3.625 7.2326 3.55915 7.07363 3.44194 6.95642C3.32473 6.83921 3.16576 6.77336 3 6.77336H1.125C0.95924 6.77336 0.800269 6.83921 0.683058 6.95642C0.565848 7.07363 0.5 7.2326 0.5 7.39836V9.89836C0.5 10.0641 0.565848 10.2231 0.683058 10.3403C0.800269 10.4575 0.95924 10.5234 1.125 10.5234C1.29076 10.5234 1.44973 10.4575 1.56694 10.3403C1.68415 10.2231 1.75 10.0641 1.75 9.89836V8.02336H2.375V12.3984H1.75C1.75 12.2326 1.68415 12.0736 1.56694 11.9564C1.44973 11.8392 1.29076 11.7734 1.125 11.7734C0.95924 11.7734 0.800269 11.8392 0.683058 11.9564C0.565848 12.0736 0.5 12.2326 0.5 12.3984V13.0234C0.5 13.1891 0.565848 13.3481 0.683058 13.4653C0.800269 13.5825 0.95924 13.6484 1.125 13.6484H3C3.1579 13.6478 3.30974 13.5875 3.425 13.4796L4.6375 14.3609C5.12497 14.7079 5.70787 14.8957 6.30625 14.8984H11.9688C12.5629 14.8931 13.141 14.7055 13.625 14.3609L17.375 11.6484C17.5542 11.5197 17.7029 11.3533 17.8107 11.1609C17.9185 10.9684 17.9827 10.7547 17.9988 10.5347C18.0149 10.3147 17.9825 10.0939 17.9039 9.88782C17.8252 9.68175 17.7023 9.49546 17.5438 9.34211H17.5375ZM7.8875 3.22336C7.38495 2.85616 7.02148 2.32968 6.85625 1.72961C7.40057 1.69019 7.94227 1.83552 8.39375 2.14211C8.89879 2.51356 9.26422 3.04409 9.43125 3.64836C8.88314 3.6881 8.33804 3.53803 7.8875 3.22336ZM13.825 10.2984L13.0938 10.7734C12.8891 10.3241 12.559 9.94361 12.1432 9.67751C11.7274 9.41141 11.2436 9.27107 10.75 9.27336H9.90625C9.75164 9.27387 9.60078 9.22577 9.475 9.13586L8.475 8.41086C9.01029 8.15705 9.59508 8.02473 10.1875 8.02336C10.9457 8.02534 11.6882 8.23947 12.3311 8.64152C12.9739 9.04357 13.4914 9.61749 13.825 10.2984ZM16.6375 10.6359L12.8875 13.3484C12.6168 13.5447 12.2906 13.6498 11.9563 13.6484H6.30625C5.97186 13.6498 5.6457 13.5447 5.375 13.3484L3.625 12.0984V8.64836H5.9875C6.43512 8.64549 6.87234 8.78321 7.2375 9.04211L8.75625 10.1484C9.0969 10.3928 9.50574 10.524 9.925 10.5234H10.75C10.9751 10.5239 11.1963 10.5816 11.393 10.6909C11.5898 10.8002 11.7556 10.9576 11.875 11.1484H8.475C7.94459 11.1499 7.42084 11.0302 6.94375 10.7984L6.5 10.5859C6.35156 10.5191 6.18294 10.513 6.03001 10.5686C5.87708 10.6243 5.7519 10.7374 5.68107 10.884C5.61025 11.0305 5.59938 11.1989 5.65076 11.3533C5.70215 11.5077 5.81175 11.636 5.95625 11.7109L6.4 11.9234C7.04668 12.237 7.75626 12.3995 8.475 12.3984H12.1063C12.605 12.3993 13.0933 12.256 13.5125 11.9859L16.275 10.2046C16.3359 10.1677 16.4072 10.1514 16.4781 10.1581C16.549 10.1649 16.6159 10.1943 16.6688 10.2421C16.6954 10.268 16.7164 10.2992 16.7303 10.3336C16.7443 10.368 16.751 10.405 16.75 10.4421C16.7459 10.4805 16.7338 10.5176 16.7144 10.551C16.695 10.5843 16.6688 10.6133 16.6375 10.6359Z" fill="#7F8A94"/>
</svg>
