<svg width="49" height="49" viewBox="0 0 49 49" fill="none" xmlns="http://www.w3.org/2000/svg">
<g filter="url(#filter0_i_538_10202)">
<g filter="url(#filter1_di_538_10202)">
<circle cx="24.5" cy="24.5" r="18.5" transform="rotate(180 24.5 24.5)" fill="#99A2D5" fill-opacity="0.04" shape-rendering="crispEdges"/>
</g>
<path d="M26.4525 24.975V24.9729C26.3376 24.9813 25.7453 25.017 24.4239 25.017C23.3689 25.017 22.6262 24.9855 22.3651 24.9729V24.976C18.3038 24.7964 15.2725 24.0851 15.2725 23.2341C15.2725 22.3841 18.3038 21.6729 22.3651 21.4901V24.2679C22.6304 24.2868 23.3908 24.332 24.4417 24.332C25.7025 24.332 26.3344 24.2795 26.4525 24.269V21.4922C30.5054 21.6739 33.5294 22.3852 33.5294 23.2341C33.5294 24.0851 30.5054 24.7943 26.4525 24.975V24.975ZM26.4525 21.2032V18.7174H32.1077V14.9268H16.7098V18.7174H22.3651V21.2022C17.769 21.4144 14.3125 22.3306 14.3125 23.4274C14.3125 24.5243 17.769 25.4394 22.3651 25.6526V33.6185H26.4525V25.6505C31.0412 25.4383 34.4893 24.5232 34.4893 23.4274C34.4893 22.3316 31.0412 21.4165 26.4525 21.2032" fill="#26A17B"/>
</g>
<defs>
<filter id="filter0_i_538_10202" x="6" y="2" width="37" height="41" filterUnits="userSpaceOnUse" color-interpolation-filters="sRGB">
<feFlood flood-opacity="0" result="BackgroundImageFix"/>
<feBlend mode="normal" in="SourceGraphic" in2="BackgroundImageFix" result="shape"/>
<feColorMatrix in="SourceAlpha" type="matrix" values="0 0 0 0 0 0 0 0 0 0 0 0 0 0 0 0 0 0 127 0" result="hardAlpha"/>
<feOffset dy="-4"/>
<feGaussianBlur stdDeviation="2"/>
<feComposite in2="hardAlpha" operator="arithmetic" k2="-1" k3="1"/>
<feColorMatrix type="matrix" values="0 0 0 0 0 0 0 0 0 0 0 0 0 0 0 0 0 0 0.25 0"/>
<feBlend mode="normal" in2="shape" result="effect1_innerShadow_538_10202"/>
</filter>
<filter id="filter1_di_538_10202" x="0" y="0" width="49" height="49" filterUnits="userSpaceOnUse" color-interpolation-filters="sRGB">
<feFlood flood-opacity="0" result="BackgroundImageFix"/>
<feColorMatrix in="SourceAlpha" type="matrix" values="0 0 0 0 0 0 0 0 0 0 0 0 0 0 0 0 0 0 127 0" result="hardAlpha"/>
<feOffset/>
<feGaussianBlur stdDeviation="3"/>
<feComposite in2="hardAlpha" operator="out"/>
<feColorMatrix type="matrix" values="0 0 0 0 0 0 0 0 0 0 0 0 0 0 0 0 0 0 0.33 0"/>
<feBlend mode="normal" in2="BackgroundImageFix" result="effect1_dropShadow_538_10202"/>
<feBlend mode="normal" in="SourceGraphic" in2="effect1_dropShadow_538_10202" result="shape"/>
<feColorMatrix in="SourceAlpha" type="matrix" values="0 0 0 0 0 0 0 0 0 0 0 0 0 0 0 0 0 0 127 0" result="hardAlpha"/>
<feOffset dy="-4"/>
<feGaussianBlur stdDeviation="4"/>
<feComposite in2="hardAlpha" operator="arithmetic" k2="-1" k3="1"/>
<feColorMatrix type="matrix" values="0 0 0 0 0 0 0 0 0 0 0 0 0 0 0 0 0 0 0.25 0"/>
<feBlend mode="normal" in2="shape" result="effect2_innerShadow_538_10202"/>
</filter>
</defs>
</svg>
