<svg width="49" height="49" viewBox="0 0 49 49" fill="none" xmlns="http://www.w3.org/2000/svg">
<g filter="url(#filter0_i_538_10187)">
<g filter="url(#filter1_di_538_10187)">
<circle cx="24.5" cy="24.5" r="18.5" transform="rotate(180 24.5 24.5)" fill="#99A2D5" fill-opacity="0.04" shape-rendering="crispEdges"/>
</g>
<path d="M19.8253 22.2068C19.8248 22.2079 19.8243 22.2084 19.8243 22.2094C19.8248 22.2084 19.8248 22.2079 19.8253 22.2068Z" fill="black"/>
<path d="M23.0753 19.4014C23.0695 19.4039 23.0642 19.4071 23.0584 19.4096C23.0642 19.4065 23.0695 19.4039 23.0753 19.4014Z" fill="black"/>
<path d="M24.5945 21.8354C24.5945 21.836 24.5945 21.8365 24.5939 21.837C24.5945 21.836 24.5945 21.836 24.5945 21.8354Z" fill="black"/>
<path d="M35.7591 26.0473C35.758 26.0478 35.7565 26.0483 35.7554 26.0483C35.7565 26.0478 35.758 26.0473 35.7591 26.0473Z" fill="black"/>
<path d="M30.5659 30.3656C30.5654 30.3661 30.5654 30.3661 30.5649 30.3667C30.5654 30.3661 30.5654 30.3656 30.5659 30.3656Z" fill="black"/>
<path d="M24.8965 34.9773C22.1212 34.8671 19.1383 34.1378 17.1308 32.1532C14.7869 29.7941 13.235 26.5955 13.0481 23.294C12.7967 17.424 17.3256 12.9913 22.8029 11.4019C25.6093 10.61 30.0965 10.7155 31.9906 13.208C32.8227 14.3992 32.7245 16.0104 32.0365 17.2533C31.9842 17.3226 31.9309 17.3904 31.8797 17.4607C31.8263 17.5347 31.7751 17.6102 31.7229 17.6847C31.6706 17.7597 31.6141 17.8321 31.5565 17.9029C31.5581 17.9009 31.5597 17.8993 31.5613 17.8973C31.5011 17.9697 31.4393 18.041 31.3765 18.1119C31.3538 18.1285 31.3311 18.1455 31.3083 18.1621C31.2249 18.2236 31.1425 18.2862 31.0591 18.3478C30.9762 18.4088 30.8907 18.4662 30.8057 18.5236C30.6319 18.641 30.4561 18.7548 30.2824 18.8717C30.2819 18.8722 30.2808 18.8728 30.2803 18.8733C30.2776 18.8748 30.275 18.8764 30.2729 18.8784C30.2745 18.8774 30.2755 18.8764 30.2771 18.8759C30.2745 18.8774 30.2718 18.8795 30.2692 18.881C30.2692 18.881 30.2692 18.881 30.2687 18.881C30.1889 18.9343 30.1092 18.9876 30.0289 19.0403C29.8605 19.1505 29.6841 19.2483 29.5136 19.3553C29.4228 19.4122 29.334 19.4717 29.2453 19.5317C29.1598 19.5896 29.0737 19.6481 28.9908 19.7091C28.8203 19.8348 28.6503 19.9646 28.5003 20.1141C28.4644 20.1498 28.4285 20.186 28.3957 20.2248C28.3598 20.2672 28.325 20.3101 28.2907 20.3541C28.2252 20.4374 28.1682 20.5274 28.1132 20.6179C28.0573 20.7105 28.0066 20.8067 27.9606 20.905C27.9137 21.0058 27.8682 21.1077 27.8281 21.2117C27.7531 21.4036 27.6898 21.5996 27.6428 21.7998V21.8003C27.6417 21.8039 27.6412 21.8075 27.6401 21.8111C27.628 21.8649 27.6174 21.9187 27.6106 21.973C27.6011 22.0444 27.5937 22.1153 27.5884 22.1867C27.5678 22.2849 27.5504 22.3837 27.5351 22.4835C27.5372 22.5254 27.5393 22.5678 27.5414 22.6103C27.5292 22.6739 27.5182 22.738 27.5071 22.8022C27.487 22.9185 27.4706 23.0359 27.4606 23.1534C27.45 23.2754 27.4421 23.397 27.4368 23.519C27.4316 23.6385 27.4273 23.758 27.4295 23.8775C27.4316 24.0011 27.4379 24.1247 27.4421 24.2483C27.4463 24.3688 27.449 24.4894 27.449 24.6099C27.4495 24.8576 27.4564 25.1049 27.4727 25.3521C27.4722 25.3474 27.4722 25.3423 27.4717 25.3376C27.4817 25.4923 27.4907 25.6469 27.496 25.8016C27.5018 25.9505 27.5092 26.099 27.5139 26.2479C27.516 26.3457 27.5171 26.4429 27.5192 26.5407C27.5213 26.6291 27.5256 26.7171 27.5298 26.8055C27.5382 26.9953 27.5403 27.1852 27.5409 27.375C27.5398 27.5457 27.5351 27.7164 27.5308 27.8865C27.5282 28.0065 27.5261 28.1265 27.5213 28.246C27.5166 28.3619 27.5118 28.4777 27.5065 28.5936C27.5007 28.7177 27.4955 28.8419 27.4918 28.9665C27.4881 29.0886 27.4849 29.2106 27.4764 29.3322C27.4669 29.43 27.4537 29.5272 27.4416 29.6249C27.4289 29.7227 27.4189 29.821 27.4046 29.9182C27.4004 29.9472 27.3951 29.9761 27.3898 30.0046C27.3862 30.0087 27.3825 30.0134 27.3788 30.018C27.3708 30.0248 27.3634 30.0315 27.3555 30.0382C27.2932 30.0899 27.2293 30.1396 27.1617 30.1851C27.0831 30.2337 27.0017 30.2772 26.9188 30.318C26.8697 30.3408 26.8201 30.3615 26.7694 30.3806C26.724 30.3956 26.6786 30.4091 26.6321 30.422C26.5899 30.4334 26.5476 30.4432 26.5054 30.4541C26.4991 30.4546 26.4927 30.4551 26.4864 30.4561C26.3269 30.4696 26.168 30.4799 26.008 30.4815C25.9225 30.4825 25.8364 30.4846 25.7503 30.4861C25.6716 30.4877 25.593 30.4872 25.5143 30.4851C25.4541 30.481 25.3934 30.4779 25.3332 30.4691C25.3015 30.4644 25.2703 30.4598 25.2392 30.4551C25.2355 30.4463 25.2313 30.4375 25.2276 30.4292C25.1975 30.361 25.1674 30.2927 25.1362 30.2249C25.1051 30.1561 25.0734 30.0874 25.0449 30.017C25.0417 30.0082 25.0385 29.9999 25.0354 29.9911C25.0364 29.9943 25.0375 29.9974 25.0385 30.0005C25.0354 29.9927 25.0327 29.9844 25.0296 29.9767C25.0317 29.9818 25.0333 29.9865 25.0354 29.9917C24.972 29.8132 24.9176 29.6317 24.8743 29.4481C24.83 29.2603 24.7951 29.0705 24.7555 28.8817C24.7281 28.7529 24.699 28.6246 24.671 28.4958C24.6288 28.3008 24.5939 28.1043 24.5638 27.9072C24.5337 27.7076 24.5137 27.5064 24.4926 27.3057C24.492 27.3021 24.4915 27.2979 24.4915 27.2943C24.491 27.2886 24.4904 27.2829 24.4894 27.2767C24.4899 27.2819 24.4904 27.2876 24.491 27.2928C24.4709 27.0993 24.4535 26.9053 24.4403 26.7114C24.4287 26.5345 24.4202 26.3581 24.4128 26.1812C24.3954 25.7649 24.4075 25.348 24.4134 24.9316C24.416 24.7376 24.4134 24.5437 24.4139 24.3497C24.4144 24.2509 24.4139 24.1521 24.4171 24.0533C24.4202 23.953 24.4244 23.8521 24.4287 23.7518C24.4334 23.6478 24.4366 23.5433 24.4403 23.4394C24.4434 23.339 24.4498 23.2387 24.4577 23.1389C24.473 22.9449 24.4984 22.7515 24.5021 22.557C24.5021 22.557 24.5021 22.5575 24.5021 22.558C24.5021 22.557 24.5021 22.5554 24.5021 22.5544C24.5021 22.5549 24.5021 22.5554 24.5021 22.5554C24.5021 22.5544 24.5021 22.5534 24.5021 22.5518C24.5021 22.5523 24.5021 22.5523 24.5021 22.5528C24.5031 22.4835 24.5036 22.4147 24.5021 22.346C24.501 22.3056 24.4994 22.2653 24.4968 22.2244C24.4989 22.2048 24.501 22.1851 24.5026 22.1649C24.5063 22.1148 24.5084 22.0646 24.5089 22.0139C24.5105 21.9229 24.501 21.8318 24.4867 21.7418C24.4725 21.6524 24.4545 21.5629 24.4281 21.476C24.4139 21.4289 24.398 21.3824 24.3796 21.3368C24.3611 21.2903 24.3373 21.2463 24.312 21.2029C24.3125 21.2034 24.313 21.2044 24.3136 21.2049C24.3046 21.1905 24.2967 21.176 24.2872 21.162C24.2317 21.0808 24.1673 21.0068 24.095 20.9396C24.0268 20.8765 23.9508 20.8217 23.8737 20.7705C23.8346 20.7446 23.795 20.7203 23.7544 20.6965C23.7132 20.6727 23.6709 20.6474 23.6271 20.6288C23.6012 20.6179 23.5759 20.607 23.5495 20.5977C23.5289 20.5905 23.5078 20.5843 23.4867 20.5786C23.4381 20.5646 23.3879 20.5569 23.3383 20.5501C23.2469 20.5372 23.1556 20.5232 23.0642 20.5072C22.9713 20.4907 22.8794 20.47 22.7854 20.4607C22.6872 20.4513 22.589 20.457 22.4913 20.4725C22.4111 20.4855 22.3319 20.502 22.2511 20.5139C22.1956 20.5201 22.1397 20.5238 22.0842 20.531C22.0256 20.5388 21.9675 20.5527 21.911 20.5708C21.8244 20.5982 21.7384 20.6293 21.6533 20.6613C21.5641 20.695 21.478 20.7353 21.3914 20.7741C21.3096 20.8108 21.2262 20.8439 21.1454 20.8837C21.1311 20.8905 21.1174 20.8977 21.1037 20.9055C21.1797 20.817 21.2547 20.7281 21.3334 20.6417C21.3867 20.5874 21.4406 20.5331 21.4992 20.4839C21.5641 20.4296 21.6301 20.3763 21.6956 20.3225C21.8239 20.2176 21.9496 20.1105 22.0821 20.0107C22.2421 19.8989 22.41 19.7996 22.5732 19.6936C22.6587 19.6383 22.7443 19.5834 22.8324 19.5317C22.9138 19.4841 22.9977 19.4407 23.0817 19.3977C23.098 19.39 23.1139 19.3817 23.1302 19.3739C23.1614 19.3589 23.192 19.3445 23.2232 19.3295C23.3393 19.2741 23.4566 19.2198 23.5738 19.1671C23.5954 19.1572 23.6176 19.1474 23.6393 19.1376C23.6651 19.1262 23.691 19.1143 23.7174 19.1029C23.7829 19.0745 23.8484 19.0465 23.9138 19.0181C23.9302 19.0114 23.9466 19.0041 23.9629 18.9969C23.9756 18.9912 23.9888 18.9855 24.0015 18.9803C24.0152 18.9741 24.0289 18.9684 24.0421 18.9622C24.0649 18.9524 24.087 18.9421 24.1092 18.9317C24.228 18.8764 24.3447 18.8169 24.4635 18.7605C24.5892 18.701 24.7164 18.6457 24.8432 18.5878C24.858 18.581 24.8727 18.5743 24.887 18.5671C24.8896 18.566 24.8917 18.565 24.8944 18.5634C24.8976 18.5619 24.9013 18.5603 24.9044 18.5588C24.9097 18.5562 24.9145 18.5536 24.9197 18.551C24.9282 18.5469 24.9366 18.5428 24.9451 18.5386C25.0465 18.4874 25.1457 18.4316 25.2455 18.3772C25.2788 18.3591 25.3115 18.341 25.3448 18.3229C25.4108 18.2862 25.4763 18.25 25.5423 18.2133C25.575 18.1952 25.6083 18.1766 25.641 18.1585C25.7672 18.0891 25.895 18.0229 26.0233 17.9573C26.1416 17.8973 26.2588 17.8352 26.3723 17.7669C26.498 17.6914 26.6158 17.6045 26.7346 17.5186C26.8444 17.4395 26.9569 17.364 27.0678 17.2864C27.0762 17.2807 27.0846 17.2745 27.0926 17.2688C27.1005 17.2631 27.1089 17.2569 27.1174 17.2507C27.1338 17.2388 27.1501 17.2264 27.166 17.2135C27.1945 17.1912 27.2214 17.168 27.2483 17.1431C27.308 17.0888 27.364 17.0299 27.4173 16.9699C27.421 16.9657 27.4247 16.9616 27.4284 16.9574C28.1597 16.3673 28.6128 15.7306 28.3841 15.084C28.3715 15.0628 28.3583 15.0421 28.3445 15.0215C28.3403 15.0085 28.3355 14.9951 28.3303 14.9821C28.3049 14.9185 28.2622 14.8585 28.2141 14.8094C28.1476 14.7411 28.0678 14.6909 27.987 14.6413C27.9311 14.6066 27.873 14.5751 27.8149 14.544C27.6871 14.4758 27.553 14.4178 27.4168 14.3677C27.2737 14.3154 27.1269 14.2709 26.9775 14.2415C26.8191 14.2099 26.6601 14.1959 26.4985 14.1954C26.206 14.1944 25.9124 14.1944 25.621 14.2213C25.4826 14.2337 25.3453 14.2534 25.2086 14.2751C25.0681 14.2968 24.9277 14.3175 24.7867 14.3377C24.6129 14.362 24.4403 14.3884 24.2697 14.4297C24.134 14.4628 23.9994 14.5006 23.8653 14.5404C23.7105 14.587 23.5564 14.6356 23.408 14.6987C23.2786 14.7535 23.1524 14.814 23.0252 14.8735C22.9819 14.8937 22.9386 14.9133 22.8953 14.9335C22.7284 14.9847 22.5637 15.0442 22.4047 15.1151C22.2769 15.172 22.1502 15.2309 22.024 15.2914C21.8888 15.3571 21.7563 15.4264 21.628 15.5045C21.5752 15.5366 21.5235 15.5697 21.4717 15.6033C21.3814 15.6509 21.2922 15.7011 21.2061 15.7564C21.0836 15.8356 20.9643 15.9194 20.8428 16.0006C20.7282 16.0776 20.6115 16.1526 20.5022 16.2375C20.3882 16.3264 20.2768 16.4185 20.1648 16.5095C20.0582 16.5964 19.9499 16.6818 19.8454 16.7712C19.7377 16.8633 19.6373 16.9626 19.5381 17.063C19.4356 17.1664 19.3332 17.2704 19.2308 17.3743C19.1315 17.4757 19.0312 17.5761 18.9356 17.6811C18.8516 17.7731 18.7708 17.8673 18.6916 17.9629C18.6805 17.9764 18.6689 17.9904 18.6578 18.0038C18.5681 18.1135 18.4767 18.2216 18.3933 18.3353C18.3067 18.4533 18.2233 18.5743 18.1488 18.7C18.0031 18.9457 17.8642 19.1986 17.7591 19.4639C17.7523 19.481 17.7459 19.4976 17.7391 19.5146C17.7195 19.5658 17.7011 19.617 17.6831 19.6688C17.6593 19.7376 17.6366 19.8069 17.6155 19.8762C17.5743 20.0096 17.5331 20.1431 17.4957 20.2776C17.4893 20.2993 17.4835 20.3215 17.4777 20.3432C17.4719 20.365 17.4661 20.3862 17.4608 20.4079C17.4608 20.4084 17.4603 20.4094 17.4603 20.41C17.4545 20.4317 17.4492 20.4534 17.4434 20.4746C17.4376 20.4969 17.4323 20.5186 17.427 20.5408C17.4149 20.59 17.4027 20.6391 17.3916 20.6888C17.3758 20.7353 17.3605 20.7819 17.3457 20.8289C17.2797 21.0384 17.2227 21.251 17.1725 21.4646C17.1392 21.6079 17.1128 21.7522 17.087 21.897C17.059 22.0537 17.0331 22.2099 17.0194 22.3687C17.0114 22.4634 17.0099 22.558 17.0072 22.6532C17.0051 22.7416 17.0025 22.8301 17.0009 22.9185C16.9972 23.0877 16.9935 23.2563 16.9967 23.4254C16.9967 23.427 16.9967 23.4285 16.9967 23.4301C16.9967 23.4306 16.9967 23.4306 16.9967 23.4311C16.9967 23.4316 16.9967 23.4316 16.9967 23.4321C16.9967 23.4327 16.9967 23.4327 16.9967 23.4332V23.4337C16.9967 23.4342 16.9967 23.4342 16.9967 23.4347C17.0004 23.5806 17.013 23.7254 17.0331 23.8708C17.0526 24.0151 17.0722 24.1589 17.0986 24.3021C17.1514 24.5887 17.2343 24.868 17.2966 25.1519C17.3225 25.2771 17.3478 25.4023 17.3774 25.5269C17.4101 25.6666 17.4529 25.8026 17.5009 25.9376C17.5437 26.0576 17.587 26.1771 17.6329 26.2961C17.682 26.4248 17.7264 26.5547 17.7718 26.6845C17.8251 26.8366 17.8843 26.986 17.9476 27.1345C18.0057 27.27 18.0738 27.4024 18.1414 27.5338C18.2059 27.659 18.2729 27.7831 18.3437 27.9057C18.3511 27.9191 18.359 27.9321 18.3664 27.9455C18.3986 28.0008 18.4329 28.0546 18.4688 28.1074C18.4788 28.1224 18.4894 28.1374 18.5 28.1524C18.5369 28.2046 18.5749 28.2558 18.6145 28.3065C18.7022 28.4188 18.7867 28.5331 18.8749 28.6448C18.963 28.756 19.0623 28.8569 19.1616 28.9582C19.2609 29.0596 19.3522 29.1677 19.4531 29.2675C19.4589 29.2732 19.4647 29.2794 19.471 29.2851C19.4768 29.2908 19.4832 29.297 19.489 29.3027C19.5201 29.3327 19.5523 29.3617 19.5845 29.3906C19.5909 29.3963 19.5972 29.402 19.6035 29.4077C19.9705 29.7853 20.366 30.1339 20.8038 30.4349C21.7695 31.0577 22.8874 31.4016 24.0305 31.5211C24.1562 31.5496 24.2845 31.5697 24.4123 31.5863C24.5496 31.6044 24.6869 31.6173 24.8257 31.624C24.9535 31.6303 25.0818 31.6359 25.2096 31.6401C25.3099 31.6437 25.4108 31.6453 25.5111 31.6453C25.6674 31.6453 25.8232 31.6411 25.979 31.6334C26.1125 31.6266 26.2461 31.6168 26.3797 31.6065C26.5112 31.5961 26.6427 31.5847 26.7736 31.5692C26.9072 31.5537 27.0398 31.5315 27.1718 31.5077C27.2985 31.4849 27.4258 31.4637 27.5525 31.4389C27.6803 31.4141 27.807 31.3861 27.9337 31.3551C28.0684 31.322 28.2014 31.2832 28.3345 31.2434C28.3482 31.2516 28.3646 31.2563 28.381 31.2563C28.3899 31.2563 28.3994 31.2547 28.4079 31.2516C28.4401 31.2408 28.4681 31.2201 28.4971 31.202C28.5082 31.1953 28.5198 31.188 28.5309 31.1808C28.5383 31.1782 28.5452 31.1761 28.5526 31.1735C28.608 31.1549 28.6629 31.1347 28.7173 31.1141C28.8319 31.0696 28.9454 31.023 29.0574 30.9723C29.1128 30.9475 29.1688 30.9222 29.2237 30.8963C29.2791 30.8704 29.3341 30.8441 29.3884 30.8166C29.3916 30.8151 29.3942 30.8135 29.3974 30.812C29.428 30.798 29.4587 30.7841 29.4893 30.7701C29.5775 30.7282 29.6641 30.6848 29.7496 30.6377C29.9254 30.5404 30.1013 30.4437 30.2771 30.347C30.2771 30.347 30.2776 30.347 30.2776 30.3465C30.2782 30.346 30.2787 30.346 30.2792 30.3455C30.2819 30.3439 30.285 30.3423 30.2877 30.3408C30.4556 30.2482 30.6124 30.1401 30.7708 30.033C30.8484 29.9803 30.9266 29.9275 31.0037 29.8737C31.0787 29.8215 31.1515 29.7662 31.2244 29.7108C31.2239 29.7108 31.2239 29.7113 31.2233 29.7113C31.2365 29.701 31.2503 29.6912 31.264 29.6808C31.3231 29.6363 31.3817 29.5924 31.4409 29.5484C31.4969 29.5065 31.5534 29.4656 31.6077 29.4222C31.6627 29.3782 31.7181 29.3348 31.7714 29.2893C31.829 29.2396 31.8865 29.19 31.9436 29.1393C31.9393 29.1429 31.9351 29.1465 31.9314 29.1501C32.0529 29.0436 32.177 28.9396 32.2963 28.8305C32.4214 28.7157 32.5439 28.5977 32.6633 28.4772C32.7298 28.41 32.7932 28.3396 32.8555 28.2688C32.9199 28.1958 32.9838 28.1208 33.0371 28.0402C33.0683 27.9926 33.0989 27.9377 33.0915 27.8788C33.0841 27.8219 33.0366 27.779 32.9796 27.7727C32.979 27.7727 32.9785 27.7727 32.978 27.7727C32.9685 27.7407 32.9542 27.7096 32.9357 27.6838C32.9014 27.6357 32.8571 27.5974 32.8122 27.5591C32.6759 27.4443 32.5392 27.3284 32.4156 27.2002C32.3961 27.179 32.3771 27.1572 32.3597 27.1345C32.3544 27.1262 32.3491 27.1174 32.3438 27.1091C32.3412 27.1034 32.3385 27.0972 32.3359 27.0916C32.3338 27.0853 32.3322 27.0791 32.3301 27.0729C32.329 27.0667 32.328 27.0605 32.3274 27.0543C32.3274 27.0481 32.3269 27.0414 32.3274 27.0352C32.328 27.0279 32.329 27.0212 32.3301 27.014C32.3322 27.0062 32.3338 26.999 32.3364 26.9912C32.3406 26.9803 32.3449 26.969 32.3491 26.9581C32.3919 26.939 32.4346 26.9203 32.4785 26.9022C32.546 26.8769 32.6147 26.8536 32.6839 26.8319C32.7567 26.8086 32.8291 26.7838 32.9009 26.7585C32.9009 26.7585 32.9014 26.7585 32.9014 26.7579C32.9051 26.7569 32.9088 26.7554 32.9125 26.7538C32.9294 26.7476 32.9463 26.7419 32.9632 26.7357C33.0102 26.7191 33.0572 26.7031 33.1042 26.6866C33.1216 26.6809 33.1385 26.6747 33.1559 26.669C33.1506 26.6705 33.1459 26.6726 33.1406 26.6741C33.1533 26.67 33.166 26.6659 33.1786 26.6612C33.3154 26.6167 33.4521 26.5738 33.5894 26.5304C33.5842 26.5319 33.5789 26.5335 33.5741 26.5355C33.7193 26.49 33.863 26.4404 34.0071 26.3917C34.146 26.3447 34.2843 26.2961 34.4221 26.2464C34.4359 26.2417 34.4491 26.2366 34.4628 26.2319C34.5726 26.2009 34.683 26.1704 34.7928 26.1393C34.7923 26.1393 34.7923 26.1393 34.7918 26.1398C34.7923 26.1398 34.7933 26.1393 34.7939 26.1393C34.7949 26.1388 34.796 26.1388 34.7965 26.1383C34.797 26.1383 34.7976 26.1378 34.7981 26.1378C34.7981 26.1378 34.7981 26.1378 34.7976 26.1378C34.7986 26.1378 34.7997 26.1373 34.8002 26.1367H34.8007C34.8028 26.1362 34.8044 26.1357 34.8065 26.1352C34.805 26.1357 34.8028 26.1362 34.8013 26.1367C34.8034 26.1362 34.806 26.1352 34.8086 26.1347C34.9047 26.1073 35.0003 26.0783 35.0964 26.0488C35.1846 26.0214 35.2717 25.9909 35.3599 25.9624C35.5537 25.8999 35.7491 25.844 35.9455 25.7907C36.1398 25.7374 36.3347 25.6857 36.53 25.635C36.6435 25.6066 36.7571 25.5781 36.8722 25.5585C36.8732 25.5585 36.8738 25.558 36.8743 25.558C36.887 25.573 36.8991 25.5885 36.9107 25.604C36.9118 25.6055 36.9128 25.6071 36.9139 25.6087C36.9054 25.6412 36.897 25.6743 36.888 25.7069C36.887 25.7111 36.8859 25.7152 36.8849 25.7193C36.831 25.9138 36.7697 26.1057 36.7106 26.2986C36.6515 26.4916 36.5902 26.684 36.5364 26.8785C36.5374 26.8743 36.5385 26.8702 36.5395 26.866C36.5311 26.8971 36.5226 26.9281 36.5142 26.9591C36.5152 26.955 36.5163 26.9503 36.5179 26.9462C36.4672 27.1278 36.4286 27.3119 36.3864 27.4955C36.3626 27.5907 36.3378 27.6853 36.313 27.78C36.2618 27.9719 36.2053 28.1627 36.1525 28.3546C36.124 28.4586 36.0955 28.562 36.0669 28.666C36.0416 28.7591 36.0157 28.8522 35.992 28.9458C35.9423 29.1455 35.9011 29.3472 35.8594 29.5484C35.8188 29.7444 35.7739 29.9405 35.7285 30.1355C35.719 30.1758 35.7089 30.2161 35.6989 30.2565C35.6413 30.2115 35.5843 30.1649 35.5268 30.1199C35.4666 30.0729 35.4058 30.0263 35.3499 29.9746C35.3288 29.9529 35.3082 29.9312 35.2892 29.9079C35.2606 29.8732 35.2342 29.8365 35.2047 29.8029C35.1835 29.7791 35.1619 29.7543 35.1366 29.7346C35.0948 29.702 35.0468 29.6715 34.9929 29.6627C34.9581 29.657 34.9253 29.657 34.8905 29.6643C34.8646 29.6694 34.8382 29.6803 34.816 29.6932C34.7928 29.7067 34.7696 29.7201 34.7479 29.7356C34.7041 29.7672 34.6629 29.8013 34.6223 29.8365C34.5557 29.8944 34.4966 29.9617 34.4374 30.0258C34.3794 30.0884 34.3234 30.1525 34.2706 30.2192C34.2463 30.2503 34.2215 30.2813 34.1961 30.3118C34.1893 30.3186 34.1819 30.3253 34.175 30.332C34.108 30.3967 34.0393 30.4598 33.9712 30.5229C33.9015 30.5875 33.8334 30.6537 33.7684 30.722C33.7072 30.7861 33.6454 30.8498 33.582 30.9123C33.5255 30.9661 33.468 31.0184 33.4099 31.0706C33.2737 31.1932 33.1343 31.3122 32.9996 31.4363C32.8613 31.5635 32.724 31.6918 32.5878 31.8206C32.5925 31.8159 32.5973 31.8118 32.602 31.8071C32.5012 31.9018 32.3998 31.9949 32.2984 32.0885C32.2055 32.1744 32.112 32.2582 32.0154 32.3399C31.9858 32.3637 31.9568 32.3875 31.9272 32.4113C31.7767 32.5308 31.6278 32.6523 31.481 32.7759C31.4562 32.7966 31.4319 32.8178 31.4076 32.8385C31.2693 32.9342 31.1309 33.0294 30.9921 33.1251C30.8748 33.2057 30.7566 33.2844 30.6362 33.3599C30.5094 33.4395 30.3795 33.515 30.2491 33.589C30.1261 33.6588 30.001 33.725 29.8763 33.7923C29.7554 33.8569 29.634 33.9211 29.512 33.9842C29.5167 33.9821 29.521 33.9795 29.5257 33.9774C29.4402 34.0199 29.3552 34.0633 29.268 34.1026C29.1772 34.1435 29.0864 34.1838 28.9951 34.2226C28.9882 34.2252 28.9819 34.2283 28.975 34.2309C28.9623 34.2355 28.9502 34.2402 28.9375 34.2449C28.6909 34.3349 28.4438 34.4249 28.1956 34.5107C28.1027 34.5407 28.0098 34.5707 27.9163 34.5976C27.8139 34.6271 27.7109 34.655 27.6074 34.6814C27.5414 34.6985 27.4754 34.715 27.4089 34.7311C26.62 34.8671 25.8253 34.9783 25.0232 34.9783C24.9826 34.9783 24.9398 34.9778 24.8965 34.9773Z" fill="#62E17D"/>
<path d="M30.2834 30.3455C30.2834 30.3455 30.2829 30.346 30.2824 30.346C30.2829 30.346 30.2834 30.346 30.2834 30.3455Z" fill="#62E17D"/>
<path d="M30.2935 30.3403C30.2914 30.3418 30.2887 30.3429 30.2866 30.3439C30.2887 30.3429 30.2908 30.3413 30.2935 30.3403Z" fill="#62E17D"/>
<path d="M31.2624 29.6855C31.2603 29.687 31.2582 29.6886 31.2561 29.6901C31.2577 29.6886 31.2603 29.687 31.2624 29.6855Z" fill="#62E17D"/>
<path d="M34.806 26.1362C34.8055 26.1362 34.8055 26.1362 34.806 26.1362Z" fill="#62E17D"/>
<path d="M34.7991 26.1383C34.7986 26.1383 34.7986 26.1383 34.7981 26.1388C34.7976 26.1388 34.797 26.1388 34.7965 26.1393C34.7976 26.1383 34.7981 26.1383 34.7991 26.1383Z" fill="#62E17D"/>
<path d="M34.8018 26.1373H34.8013C34.8007 26.1373 34.8002 26.1378 34.7997 26.1378C34.8002 26.1378 34.8007 26.1378 34.8018 26.1373Z" fill="#62E17D"/>
<path d="M24.4936 27.2948C24.4936 27.2964 24.4941 27.2984 24.4941 27.3005C24.4941 27.2979 24.4936 27.2964 24.4936 27.2948Z" fill="#62E17D"/>
<path d="M27.4796 29.3182C27.4796 29.3208 27.4791 29.3234 27.4791 29.326C27.4791 29.3234 27.4791 29.3208 27.4796 29.3182Z" fill="#62E17D"/>
<path d="M27.5155 26.2479C27.5155 26.2511 27.5155 26.2536 27.5155 26.2567C27.516 26.2542 27.5155 26.2511 27.5155 26.2479Z" fill="#62E17D"/>
<path d="M30.2824 18.8728C30.2819 18.8728 30.2819 18.8733 30.2813 18.8733C30.2813 18.8733 30.2819 18.8728 30.2824 18.8728Z" fill="#62E17D"/>
<path d="M19.3485 26.3033C19.3047 26.0871 19.264 25.8683 19.2461 25.648C19.2624 25.5952 19.2793 25.5424 19.2973 25.4902C19.2962 25.4928 19.2952 25.4959 19.2941 25.4985C19.2994 25.4845 19.3047 25.4705 19.3094 25.4566C19.3094 25.4571 19.3089 25.4571 19.3089 25.4576C19.3115 25.4499 19.3147 25.4426 19.3173 25.4349C19.3506 25.35 19.3855 25.2662 19.4193 25.1814C19.4198 25.1799 19.4203 25.1783 19.4214 25.1768C19.4214 25.1768 19.4214 25.1768 19.4214 25.1773C19.4309 25.154 19.4399 25.1307 19.4494 25.1075C19.4494 25.1069 19.4499 25.1064 19.4499 25.1054C19.4504 25.1043 19.4504 25.1038 19.4509 25.1028C19.4509 25.1023 19.4515 25.1023 19.4515 25.1018C19.4752 25.0438 19.5 24.9869 19.5275 24.9306C19.5534 24.8768 19.5829 24.825 19.613 24.7733C19.6484 24.7133 19.6838 24.6533 19.7218 24.5949C19.7598 24.5359 19.801 24.479 19.8433 24.4232C19.8649 24.3963 19.8866 24.3704 19.9087 24.344C19.8998 24.3694 19.8908 24.3947 19.8823 24.4206C19.8549 24.5049 19.828 24.5892 19.8 24.673C19.7715 24.7588 19.744 24.8447 19.7181 24.9311C19.6912 25.0211 19.6632 25.1111 19.6431 25.2031C19.6236 25.29 19.6062 25.3774 19.5898 25.4654C19.5734 25.5533 19.5571 25.6412 19.5386 25.7286C19.5196 25.8212 19.5053 25.9143 19.4979 26.0085C19.4911 26.0959 19.4921 26.1838 19.4921 26.2717C19.4927 26.356 19.4911 26.4404 19.4895 26.5247C19.4884 26.5821 19.4874 26.6395 19.4868 26.6974C19.3696 26.6074 19.3802 26.4357 19.3485 26.3033Z" fill="#62E17D"/>
<path d="M19.4383 23.8552C19.4599 23.8164 19.481 23.7777 19.5043 23.7399C19.5286 23.7001 19.5528 23.6602 19.5777 23.6214C19.5893 23.6044 19.6009 23.5878 19.6125 23.5708C19.6247 23.5527 19.6389 23.5356 19.6516 23.518C19.6637 23.5015 19.678 23.4859 19.6912 23.4699C19.7039 23.4544 19.7186 23.4394 19.7324 23.4244C19.7308 23.4265 19.7292 23.428 19.7271 23.4301C19.753 23.4042 19.7788 23.3784 19.8063 23.354C19.8338 23.3292 19.8612 23.3044 19.8892 23.2801C19.9462 23.2299 20.0043 23.1802 20.0635 23.1321C20.0613 23.1337 20.0598 23.1347 20.0576 23.1363C20.0772 23.1213 20.0967 23.1058 20.1168 23.0918C20.1363 23.0784 20.1553 23.0644 20.1749 23.0515C20.1955 23.038 20.2161 23.0251 20.2372 23.0122C20.2768 22.9884 20.3169 22.9651 20.357 22.9418C20.4373 22.8953 20.5181 22.8497 20.5983 22.8042C20.677 22.7597 20.7541 22.7132 20.8333 22.6703C20.9046 22.631 20.9764 22.5927 21.0493 22.5554C21.0398 22.5663 21.0297 22.5772 21.0202 22.588C20.9595 22.6568 20.903 22.7287 20.8449 22.7996C20.7874 22.8699 20.7277 22.9387 20.6712 23.0096C20.6142 23.0809 20.5587 23.1539 20.5059 23.2284C20.4505 23.3075 20.3982 23.3892 20.3481 23.472C20.3512 23.4668 20.3544 23.4616 20.3576 23.4565C20.2984 23.5537 20.2435 23.653 20.1881 23.7518C20.1886 23.7508 20.1891 23.7497 20.1902 23.7482C20.1891 23.7502 20.1881 23.7523 20.1865 23.7544C20.1849 23.757 20.1833 23.7595 20.1817 23.7621C20.1532 23.8123 20.1252 23.863 20.0994 23.9142C20.0645 23.9845 20.0297 24.0549 19.9969 24.1268C19.9594 24.1614 19.923 24.1966 19.8876 24.2333C19.8459 24.2768 19.8042 24.3202 19.7662 24.3668C19.7271 24.4154 19.6891 24.4645 19.6521 24.5147C19.6167 24.5628 19.5845 24.613 19.5523 24.6632C19.5201 24.7123 19.4895 24.7619 19.4594 24.8121C19.3981 24.915 19.349 25.0237 19.302 25.1333C19.2777 25.1892 19.2529 25.245 19.2292 25.3014C19.2249 24.8131 19.2962 24.3238 19.4383 23.8552Z" fill="#62E17D"/>
<path d="M19.4515 25.1018C19.4515 25.1023 19.4509 25.1023 19.4509 25.1028C19.4504 25.1038 19.4504 25.1043 19.4499 25.1054C19.4499 25.1059 19.4494 25.1059 19.4494 25.1064C19.4504 25.1049 19.4509 25.1033 19.4515 25.1018Z" fill="#62E17D"/>
<path d="M19.5951 23.3121C19.5951 23.3116 19.5951 23.3111 19.5956 23.3111C19.6025 23.2899 19.6088 23.2687 19.6157 23.2475C19.6421 23.172 19.669 23.0965 19.7033 23.0235C19.7392 22.948 19.7767 22.873 19.8148 22.798C19.858 22.7127 19.9029 22.6284 19.9483 22.5441C19.9784 22.5135 20.0091 22.4835 20.0413 22.4551C20.0862 22.4158 20.1316 22.378 20.1786 22.3413C20.2403 22.2953 20.3032 22.2503 20.3681 22.2084C20.4019 22.1866 20.4357 22.1649 20.47 22.1442C20.5028 22.1251 20.535 22.1065 20.5677 22.0879C20.6184 22.0604 20.6691 22.033 20.7214 22.0087C20.7747 21.9839 20.8286 21.9606 20.8824 21.9379C20.9009 21.9306 20.9194 21.9234 20.9379 21.9167C21.0319 21.883 21.1269 21.853 21.2214 21.8215C21.2705 21.8055 21.3202 21.7889 21.3693 21.7729C21.4131 21.7589 21.4574 21.7465 21.5023 21.7346C21.534 21.7273 21.5662 21.7196 21.5979 21.7139C21.6285 21.7082 21.6592 21.7036 21.6898 21.6994C21.7225 21.6958 21.7553 21.6922 21.7885 21.6891C21.8397 21.6844 21.8904 21.6798 21.9417 21.6746C21.9923 21.6694 22.043 21.6627 22.0932 21.656C22.1402 21.6498 22.1872 21.641 22.2331 21.6306C22.2368 21.6296 22.241 21.6291 22.2447 21.628C22.1127 21.7041 21.9807 21.7801 21.8556 21.8665C21.7025 21.9725 21.5504 22.0811 21.412 22.2058C21.3291 22.2803 21.2462 22.3553 21.167 22.4334C21.0884 22.468 21.0107 22.5058 20.9331 22.543C20.8481 22.5839 20.7636 22.6268 20.6802 22.6703C20.6797 22.6708 20.6786 22.6708 20.6781 22.6713C20.6786 22.6713 20.6786 22.6708 20.6791 22.6708C20.6791 22.6708 20.6786 22.6713 20.6781 22.6713C20.6781 22.6713 20.6775 22.6713 20.6775 22.6718C20.677 22.6718 20.677 22.6723 20.6765 22.6723C20.676 22.6723 20.676 22.6728 20.6754 22.6728C20.6749 22.6728 20.6749 22.6734 20.6749 22.6734L20.6754 22.6728H20.6749C20.6744 22.6734 20.6733 22.6739 20.6728 22.6739C20.6733 22.6734 20.6744 22.6734 20.6749 22.6728C20.6057 22.7091 20.5366 22.7447 20.4669 22.7799C20.3819 22.8228 20.2968 22.8668 20.2129 22.9118C20.1305 22.9563 20.0518 23.007 19.9779 23.0639C19.98 23.0623 19.9816 23.0613 19.9837 23.0597C19.9705 23.0701 19.9568 23.0799 19.9436 23.0908C19.8707 23.1497 19.7994 23.2097 19.7287 23.2708C19.6949 23.3002 19.6622 23.3308 19.6315 23.3633C19.6141 23.382 19.5967 23.4011 19.5803 23.4208C19.5719 23.4306 19.5634 23.4409 19.5555 23.4513C19.5671 23.4052 19.5803 23.3587 19.5951 23.3121Z" fill="#62E17D"/>
<path d="M20.6749 22.6739H20.6754C20.6749 22.6739 20.6749 22.6739 20.6749 22.6739Z" fill="#62E17D"/>
<path d="M20.3069 21.9317C20.3824 21.8101 20.4595 21.6896 20.5434 21.5732C20.5767 21.5272 20.6115 21.4827 20.6469 21.4382C20.6665 21.4232 20.686 21.4087 20.7055 21.3943C20.7615 21.357 20.818 21.3203 20.8771 21.2877C20.9363 21.2551 20.996 21.2236 21.0561 21.1925C21.1243 21.1584 21.1924 21.1237 21.26 21.0886C21.2922 21.072 21.3233 21.0544 21.355 21.0374C21.3872 21.0198 21.4194 21.0032 21.4522 20.9867C21.4495 20.9882 21.4469 20.9893 21.4442 20.9908C21.4897 20.9691 21.5351 20.9484 21.5815 20.9293C21.6269 20.9106 21.6724 20.8931 21.7178 20.876C21.8001 20.8481 21.883 20.8227 21.9665 20.7979C22.0267 20.7803 22.0874 20.7643 22.1481 20.7498C22.1523 20.7498 22.1566 20.7498 22.1608 20.7498C22.2009 20.7498 22.2416 20.7508 22.2817 20.7482C22.3234 20.7462 22.3657 20.7425 22.4074 20.7379C22.4887 20.7296 22.5684 20.7208 22.6503 20.7193C22.6904 20.7203 22.7305 20.7229 22.7707 20.727C22.8763 20.7436 22.9808 20.7684 23.0864 20.7875C23.1186 20.7932 23.1514 20.7989 23.1836 20.8036C23.1635 20.8367 23.1434 20.8698 23.1228 20.9029C23.1075 20.9262 23.0928 20.9494 23.0753 20.9712C23.0378 21.0167 22.9961 21.0581 22.9539 21.0994C22.9449 21.1077 22.9365 21.1165 22.9275 21.1248C22.927 21.1253 22.927 21.1253 22.9264 21.1258C22.9233 21.1289 22.9201 21.132 22.9169 21.1356C22.9174 21.1351 22.9174 21.1351 22.918 21.1346C22.909 21.1439 22.8995 21.1527 22.8905 21.162C22.8942 21.1584 22.8974 21.1548 22.9011 21.1512C22.8435 21.2086 22.7854 21.2644 22.7226 21.3161C22.6476 21.3746 22.5705 21.4299 22.4908 21.4817C22.4586 21.5018 22.4264 21.521 22.3942 21.5406C22.3915 21.5401 22.3889 21.5401 22.3862 21.5401C22.3852 21.5401 22.3847 21.5401 22.3841 21.5401C22.3778 21.5401 22.3715 21.5396 22.3651 21.5401C22.354 21.5411 22.3424 21.5427 22.3313 21.5442C22.3113 21.5474 22.2917 21.5515 22.2717 21.5551C22.2315 21.5629 22.1909 21.5696 22.1502 21.5758C22.1075 21.5815 22.0652 21.5867 22.0224 21.5908C21.9813 21.5949 21.9401 21.5975 21.8989 21.6001C21.8487 21.6032 21.7991 21.6058 21.7489 21.6084C21.7262 21.6094 21.7035 21.611 21.6813 21.613C21.6576 21.6156 21.6333 21.6172 21.6095 21.6208C21.5852 21.6244 21.5604 21.6275 21.5361 21.6322C21.5108 21.6374 21.4854 21.642 21.4601 21.6477C21.4083 21.6596 21.3566 21.6736 21.3054 21.6886C21.2573 21.7025 21.2093 21.717 21.1612 21.7315C21.1169 21.7449 21.0725 21.7573 21.0282 21.7708C20.9806 21.7853 20.9336 21.7998 20.8872 21.8163C20.836 21.8344 20.7853 21.8546 20.7346 21.8753C20.5508 21.9518 20.3776 22.0517 20.2139 22.1629C20.1838 22.183 20.1543 22.2042 20.1252 22.226C20.1844 22.1292 20.2456 22.0304 20.3069 21.9317Z" fill="#62E17D"/>
<path d="M23.2395 22.6299C23.2945 22.4685 23.3425 22.3046 23.3816 22.1385C23.4022 22.0517 23.4212 21.9642 23.4397 21.8768C23.4571 21.793 23.4761 21.7092 23.4914 21.6249C23.4993 21.5815 23.5067 21.538 23.5131 21.4941C23.5194 21.4511 23.5247 21.4061 23.5263 21.3627C23.5278 21.3208 23.5294 21.2784 23.5278 21.236C23.5257 21.1905 23.5231 21.1455 23.5194 21.0999C23.5131 21.0234 23.503 20.9474 23.4882 20.8724C23.5173 20.8853 23.5453 20.8993 23.5738 20.9143C23.6519 20.9598 23.7269 21.0084 23.7998 21.0606C23.8436 21.0943 23.8853 21.1299 23.926 21.1672C23.9302 21.1718 23.9344 21.176 23.9387 21.1806C23.9793 21.2624 24.0136 21.3461 24.0458 21.4315C24.0796 21.5241 24.1097 21.6172 24.1335 21.7129C24.1446 21.762 24.153 21.8117 24.1588 21.8618C24.1631 21.9182 24.1646 21.9741 24.1646 22.0304C24.1631 22.0599 24.161 22.0894 24.1578 22.1189C24.153 22.1194 24.1483 22.1199 24.1435 22.121C23.8389 22.2942 23.5331 22.4665 23.2337 22.648C23.2353 22.6413 23.2374 22.6356 23.2395 22.6299Z" fill="#62E17D"/>
<path d="M22.005 23.3137C22.0024 23.2216 22.0029 23.1296 22.0045 23.0375C22.0055 23.0106 22.0061 22.9842 22.0071 22.9578C22.0156 22.798 22.0288 22.6382 22.0446 22.4789C22.0605 22.3201 22.0779 22.1613 22.1022 22.003C22.1032 21.9973 22.1043 21.9917 22.1048 21.986C22.117 21.9782 22.1286 21.9704 22.1407 21.9627C22.2168 21.9146 22.2928 21.8665 22.3704 21.821C22.4496 21.7744 22.5283 21.7279 22.6059 21.6782C22.6054 21.6782 22.6054 21.6787 22.6049 21.6787C22.6524 21.6482 22.6988 21.6167 22.7443 21.5836C22.8198 21.5282 22.8937 21.4708 22.9618 21.4067C22.9977 21.373 23.0315 21.3374 23.0663 21.3027C23.0954 21.2732 23.125 21.2448 23.1535 21.2148C23.1867 21.1801 23.2184 21.1444 23.2475 21.1062C23.276 21.0684 23.3008 21.027 23.3246 20.9862C23.3393 20.9598 23.3547 20.9334 23.3694 20.907C23.3721 20.9525 23.3731 20.9986 23.3731 21.0441C23.3721 21.0922 23.3716 21.1403 23.3689 21.1884C23.3663 21.2417 23.3615 21.2939 23.3552 21.3472C23.3483 21.3922 23.3404 21.4372 23.3309 21.4817C23.3198 21.5313 23.3077 21.581 23.295 21.6306C23.2712 21.7232 23.2475 21.8158 23.2226 21.9084C23.2237 21.9042 23.2248 21.9001 23.2258 21.896C23.1841 22.0522 23.1403 22.2073 23.0901 22.3615C23.0484 22.4789 23.0056 22.5953 22.9592 22.7111C22.9375 22.7613 22.9159 22.8109 22.8937 22.8606C22.6429 23.023 22.3989 23.1952 22.1666 23.384C22.1185 23.4239 22.07 23.4637 22.0219 23.504C22.0129 23.4404 22.0066 23.3778 22.005 23.3137Z" fill="#62E17D"/>
<path d="M21.1649 24.2726C21.1581 24.2245 21.1549 24.1759 21.1517 24.1273C21.1512 24.1149 21.1507 24.103 21.1507 24.0906C21.1507 24.089 21.1507 24.088 21.1507 24.0864C21.1507 24.0864 21.1507 24.0864 21.1507 24.0859C21.1507 24.0854 21.1507 24.0854 21.1507 24.0849C21.1507 24.0792 21.1501 24.074 21.1501 24.0689C21.1491 23.9752 21.1491 23.8816 21.1554 23.788C21.1623 23.6877 21.1713 23.5873 21.1823 23.4875C21.1818 23.4901 21.1818 23.4927 21.1813 23.4952C21.2014 23.3251 21.2204 23.1554 21.2394 22.9853C21.2394 22.9873 21.2388 22.9894 21.2388 22.9915C21.2462 22.9268 21.2536 22.8622 21.2621 22.7975C21.2674 22.7587 21.2721 22.7194 21.2784 22.6806C21.2864 22.6723 21.2943 22.6635 21.3027 22.6553C21.365 22.5901 21.4305 22.5285 21.4965 22.467C21.5594 22.4085 21.6222 22.3511 21.6877 22.2958C21.6893 22.2948 21.6903 22.2937 21.6919 22.2927C21.6924 22.2922 21.6929 22.2922 21.6935 22.2916C21.6945 22.2911 21.6951 22.2906 21.6961 22.2896C21.6966 22.2896 21.6966 22.2891 21.6972 22.2891C21.6977 22.2885 21.6982 22.2885 21.6988 22.288C21.6988 22.288 21.6993 22.2875 21.6998 22.2875C21.7035 22.2844 21.7072 22.2818 21.7109 22.2787C21.712 22.2777 21.713 22.2772 21.7141 22.2761C21.7832 22.2213 21.854 22.1685 21.9248 22.1158C21.9485 22.0982 21.9723 22.0806 21.996 22.0635C21.9802 22.1287 21.9659 22.1944 21.9527 22.2601C21.9232 22.4085 21.8952 22.5565 21.8725 22.7059C21.8482 22.8673 21.8271 23.0292 21.8191 23.1921C21.8144 23.2811 21.8091 23.3706 21.8144 23.4596C21.8181 23.5278 21.8239 23.5961 21.8339 23.6639C21.6982 23.7787 21.5631 23.8951 21.4295 24.013C21.3423 24.1082 21.2557 24.2039 21.1707 24.3006C21.167 24.2907 21.166 24.282 21.1649 24.2726Z" fill="#62E17D"/>
<path d="M20.5799 25.0247C20.5587 24.9233 20.5445 24.8199 20.5355 24.7164C20.526 24.6109 20.5276 24.5044 20.5281 24.3983C20.5281 24.3833 20.5286 24.3678 20.5286 24.3528C20.5302 24.3026 20.5318 24.2525 20.5339 24.2023C20.5387 24.0989 20.5466 23.9954 20.5566 23.892C20.5656 23.8009 20.5735 23.7099 20.5846 23.6189C20.5862 23.6163 20.5878 23.6132 20.5894 23.6101C20.6332 23.534 20.6786 23.4585 20.7261 23.3846C20.7288 23.3804 20.7319 23.3763 20.7346 23.3716C20.8059 23.264 20.8845 23.1601 20.9659 23.0592C21.0218 22.9899 21.0762 22.919 21.1311 22.8492C21.1454 22.8311 21.1602 22.8135 21.175 22.7954C21.1718 22.8115 21.1691 22.828 21.1665 22.844C21.1475 22.9542 21.1301 23.0644 21.1116 23.1746C21.0873 23.3246 21.0572 23.4735 21.0371 23.624C21.0165 23.7777 20.9991 23.9318 20.9954 24.087C20.9933 24.1707 20.997 24.2545 21.0049 24.3383C21.0092 24.3828 21.0134 24.4278 21.0187 24.4723C20.9067 24.6042 20.7979 24.7381 20.6934 24.8768C20.6559 24.9295 20.6189 24.9823 20.5825 25.035C20.5814 25.0325 20.5809 25.0283 20.5799 25.0247Z" fill="#62E17D"/>
<path d="M21.1501 24.0854C21.1501 24.0859 21.1501 24.0859 21.1501 24.0864C21.1501 24.0864 21.1501 24.0864 21.1501 24.087C21.1501 24.0864 21.1501 24.0859 21.1501 24.0854Z" fill="#62E17D"/>
<path d="M19.5877 26.7316C19.5919 26.7052 19.5967 26.6793 19.6014 26.6529C19.6167 26.5691 19.6368 26.4864 19.6532 26.4031C19.6864 26.2329 19.6991 26.0597 19.7429 25.8916C19.7419 25.8947 19.7414 25.8978 19.7408 25.9004C19.7435 25.8895 19.7466 25.8786 19.7493 25.8673C19.7741 25.7747 19.8037 25.6831 19.8274 25.5905C19.8507 25.5 19.8718 25.4095 19.894 25.319C19.9151 25.2337 19.9404 25.1493 19.9674 25.0656C19.9943 24.9823 20.0207 24.8985 20.0492 24.8157C20.0772 24.7345 20.1062 24.6533 20.1326 24.5716C20.1601 24.4863 20.1897 24.4019 20.2261 24.3197C20.2625 24.237 20.3016 24.1552 20.3412 24.074C20.3792 23.9959 20.4209 23.9199 20.4621 23.8433C20.469 23.8309 20.4753 23.819 20.4817 23.8066C20.4658 23.9085 20.4516 24.0104 20.4394 24.1128C20.4267 24.2189 20.4183 24.3254 20.4141 24.4319C20.4093 24.5406 20.4051 24.6497 20.4141 24.7583C20.4183 24.8121 20.423 24.8664 20.4304 24.9202C20.4384 24.9766 20.4473 25.033 20.4579 25.0894C20.4642 25.1219 20.4711 25.1545 20.479 25.1866C20.4658 25.2062 20.4531 25.2254 20.4399 25.245C20.4373 25.2512 20.4347 25.2574 20.432 25.2637C20.2778 25.603 20.1395 25.949 19.9769 26.2847C19.8945 26.4378 19.7984 26.7316 19.5983 26.7316C19.5956 26.7321 19.5919 26.7316 19.5877 26.7316Z" fill="#62E17D"/>
<path d="M20.1828 23.7627C20.1833 23.7627 20.1833 23.7627 20.1828 23.7627Z" fill="#62E17D"/>
<path d="M21.6924 22.2906C21.6924 22.2911 21.6924 22.2911 21.6924 22.2906Z" fill="#62E17D"/>
<path d="M21.6929 22.2906C21.6924 22.2906 21.6924 22.2906 21.6929 22.2906Z" fill="#62E17D"/>
<path d="M21.6966 22.2875C21.6961 22.288 21.6961 22.288 21.6956 22.2885C21.6951 22.2885 21.6951 22.2891 21.6945 22.2891C21.694 22.2891 21.694 22.2896 21.6935 22.2896C21.6951 22.2891 21.6961 22.288 21.6966 22.2875Z" fill="#62E17D"/>
<path d="M21.6977 22.287C21.6972 22.2875 21.6972 22.2875 21.6966 22.2875C21.6972 22.287 21.6972 22.287 21.6977 22.287Z" fill="#62E17D"/>
<path d="M21.6982 22.2865C21.6977 22.287 21.6977 22.287 21.6977 22.287C21.6977 22.2865 21.6982 22.2865 21.6982 22.2865Z" fill="#62E17D"/>
</g>
<defs>
<filter id="filter0_i_538_10187" x="6" y="2" width="37" height="41" filterUnits="userSpaceOnUse" color-interpolation-filters="sRGB">
<feFlood flood-opacity="0" result="BackgroundImageFix"/>
<feBlend mode="normal" in="SourceGraphic" in2="BackgroundImageFix" result="shape"/>
<feColorMatrix in="SourceAlpha" type="matrix" values="0 0 0 0 0 0 0 0 0 0 0 0 0 0 0 0 0 0 127 0" result="hardAlpha"/>
<feOffset dy="-4"/>
<feGaussianBlur stdDeviation="2"/>
<feComposite in2="hardAlpha" operator="arithmetic" k2="-1" k3="1"/>
<feColorMatrix type="matrix" values="0 0 0 0 0 0 0 0 0 0 0 0 0 0 0 0 0 0 0.25 0"/>
<feBlend mode="normal" in2="shape" result="effect1_innerShadow_538_10187"/>
</filter>
<filter id="filter1_di_538_10187" x="0" y="0" width="49" height="49" filterUnits="userSpaceOnUse" color-interpolation-filters="sRGB">
<feFlood flood-opacity="0" result="BackgroundImageFix"/>
<feColorMatrix in="SourceAlpha" type="matrix" values="0 0 0 0 0 0 0 0 0 0 0 0 0 0 0 0 0 0 127 0" result="hardAlpha"/>
<feOffset/>
<feGaussianBlur stdDeviation="3"/>
<feComposite in2="hardAlpha" operator="out"/>
<feColorMatrix type="matrix" values="0 0 0 0 0 0 0 0 0 0 0 0 0 0 0 0 0 0 0.33 0"/>
<feBlend mode="normal" in2="BackgroundImageFix" result="effect1_dropShadow_538_10187"/>
<feBlend mode="normal" in="SourceGraphic" in2="effect1_dropShadow_538_10187" result="shape"/>
<feColorMatrix in="SourceAlpha" type="matrix" values="0 0 0 0 0 0 0 0 0 0 0 0 0 0 0 0 0 0 127 0" result="hardAlpha"/>
<feOffset dy="-4"/>
<feGaussianBlur stdDeviation="4"/>
<feComposite in2="hardAlpha" operator="arithmetic" k2="-1" k3="1"/>
<feColorMatrix type="matrix" values="0 0 0 0 0 0 0 0 0 0 0 0 0 0 0 0 0 0 0.25 0"/>
<feBlend mode="normal" in2="shape" result="effect2_innerShadow_538_10187"/>
</filter>
</defs>
</svg>
