<svg width="49" height="49" viewBox="0 0 49 49" fill="none" xmlns="http://www.w3.org/2000/svg">
<g filter="url(#filter0_i_538_10214)">
<g filter="url(#filter1_di_538_10214)">
<circle cx="24.5" cy="24.5" r="18.5" transform="rotate(180 24.5 24.5)" fill="#99A2D5" fill-opacity="0.04" shape-rendering="crispEdges"/>
</g>
<path d="M28.7293 26.0226C28.7293 23.791 27.3922 23.0262 24.7181 22.7068C22.8087 22.4515 22.4274 21.9419 22.4274 21.0489C22.4274 20.1558 23.0646 19.5822 24.3369 19.5822C25.4827 19.5822 26.1199 19.9646 26.4375 20.9218C26.4706 21.0143 26.5311 21.0944 26.6108 21.1514C26.6906 21.2083 26.7857 21.2392 26.8835 21.2401H27.902C27.9608 21.2417 28.0193 21.2312 28.074 21.2094C28.1287 21.1875 28.1784 21.1547 28.2201 21.113C28.2618 21.0712 28.2946 21.0214 28.3166 20.9665C28.3386 20.9116 28.3493 20.8528 28.348 20.7936V20.7305C28.2235 20.0381 27.8752 19.4063 27.357 18.9335C26.8389 18.4606 26.18 18.173 25.4827 18.1155V16.5858C25.4827 16.3305 25.2916 16.1393 24.974 16.0752H24.0183C23.7644 16.0752 23.5733 16.2664 23.5096 16.5858V18.0525C21.599 18.3067 20.3905 19.5822 20.3905 21.1771C20.3905 23.2804 21.6628 24.1094 24.3369 24.4288C26.1199 24.7471 26.6924 25.1306 26.6924 26.1507C26.6924 27.1699 25.8013 27.8717 24.5917 27.8717C22.9361 27.8717 22.3637 27.1709 22.1725 26.2138C22.1098 25.9595 21.9176 25.8314 21.7265 25.8314H20.6443C20.5856 25.8299 20.5272 25.8405 20.4726 25.8624C20.418 25.8843 20.3684 25.9171 20.3269 25.9589C20.2853 26.0006 20.2525 26.0504 20.2306 26.1052C20.2087 26.1601 20.198 26.2188 20.1993 26.2779V26.3409C20.4532 27.9358 21.4727 29.0831 23.5733 29.4024V30.9332C23.5733 31.1875 23.7644 31.3797 24.082 31.4428H25.0378C25.2916 31.4428 25.4827 31.2516 25.5465 30.9332V29.4014C27.457 29.0831 28.7293 27.7435 28.7293 26.0215V26.0226Z" fill="#3E73C4"/>
<path d="M21.2811 32.7186C16.3152 30.9325 13.7686 25.3852 15.6154 20.4756C16.5701 17.7965 18.6707 15.7572 21.2811 14.8001C21.536 14.673 21.6624 14.4817 21.6624 14.1624V13.2693C21.6624 13.0151 21.536 12.8239 21.2811 12.7598C21.2174 12.7598 21.0899 12.7598 21.0262 12.8228C19.5935 13.2728 18.2635 14.0034 17.1127 14.9726C15.9619 15.9417 15.013 17.1303 14.3208 18.4698C13.6285 19.8093 13.2066 21.2733 13.0792 22.7775C12.9518 24.2817 13.1214 25.7963 13.5785 27.2343C14.7233 30.8065 17.4611 33.5486 21.0262 34.6959C21.2811 34.823 21.536 34.6959 21.5986 34.4406C21.6624 34.3775 21.6624 34.3124 21.6624 34.1853V33.2922C21.6624 33.101 21.4722 32.8468 21.2811 32.7186V32.7186ZM28.029 12.8239C27.7741 12.6957 27.5192 12.8239 27.4566 13.0781C27.3928 13.1422 27.3928 13.2063 27.3928 13.3334V14.2264C27.3928 14.4817 27.583 14.736 27.7741 14.8642C32.74 16.6503 35.2866 22.1976 33.4398 27.1072C32.4851 29.7863 30.3845 31.8256 27.7741 32.7827C27.5192 32.9098 27.3928 33.101 27.3928 33.4204V34.3135C27.3928 34.5677 27.5192 34.7589 27.7741 34.823C27.8378 34.823 27.9653 34.823 28.029 34.76C29.4617 34.31 30.7917 33.5794 31.9425 32.6102C33.0933 31.6411 34.0422 30.4525 34.7344 29.113C35.4267 27.7735 35.8486 26.3095 35.976 24.8053C36.1034 23.3011 35.9338 21.7864 35.4768 20.3485C34.3319 16.7133 31.5304 13.9711 28.029 12.8239V12.8239Z" fill="#3E73C4"/>
</g>
<defs>
<filter id="filter0_i_538_10214" x="6" y="2" width="37" height="41" filterUnits="userSpaceOnUse" color-interpolation-filters="sRGB">
<feFlood flood-opacity="0" result="BackgroundImageFix"/>
<feBlend mode="normal" in="SourceGraphic" in2="BackgroundImageFix" result="shape"/>
<feColorMatrix in="SourceAlpha" type="matrix" values="0 0 0 0 0 0 0 0 0 0 0 0 0 0 0 0 0 0 127 0" result="hardAlpha"/>
<feOffset dy="-4"/>
<feGaussianBlur stdDeviation="2"/>
<feComposite in2="hardAlpha" operator="arithmetic" k2="-1" k3="1"/>
<feColorMatrix type="matrix" values="0 0 0 0 0 0 0 0 0 0 0 0 0 0 0 0 0 0 0.25 0"/>
<feBlend mode="normal" in2="shape" result="effect1_innerShadow_538_10214"/>
</filter>
<filter id="filter1_di_538_10214" x="0" y="0" width="49" height="49" filterUnits="userSpaceOnUse" color-interpolation-filters="sRGB">
<feFlood flood-opacity="0" result="BackgroundImageFix"/>
<feColorMatrix in="SourceAlpha" type="matrix" values="0 0 0 0 0 0 0 0 0 0 0 0 0 0 0 0 0 0 127 0" result="hardAlpha"/>
<feOffset/>
<feGaussianBlur stdDeviation="3"/>
<feComposite in2="hardAlpha" operator="out"/>
<feColorMatrix type="matrix" values="0 0 0 0 0 0 0 0 0 0 0 0 0 0 0 0 0 0 0.33 0"/>
<feBlend mode="normal" in2="BackgroundImageFix" result="effect1_dropShadow_538_10214"/>
<feBlend mode="normal" in="SourceGraphic" in2="effect1_dropShadow_538_10214" result="shape"/>
<feColorMatrix in="SourceAlpha" type="matrix" values="0 0 0 0 0 0 0 0 0 0 0 0 0 0 0 0 0 0 127 0" result="hardAlpha"/>
<feOffset dy="-4"/>
<feGaussianBlur stdDeviation="4"/>
<feComposite in2="hardAlpha" operator="arithmetic" k2="-1" k3="1"/>
<feColorMatrix type="matrix" values="0 0 0 0 0 0 0 0 0 0 0 0 0 0 0 0 0 0 0.25 0"/>
<feBlend mode="normal" in2="shape" result="effect2_innerShadow_538_10214"/>
</filter>
</defs>
</svg>
