<svg width="259" height="113" viewBox="0 0 259 113" fill="none" xmlns="http://www.w3.org/2000/svg">
<g filter="url(#filter0_d_190_7774)">
<path d="M104.806 93.6887C103.878 89.3425 107.22 86.3543 107.22 86.3543C107.22 86.3543 112.517 87.1549 113.636 92.2116C115.227 99.4048 110.888 102.926 110.888 102.926C110.888 102.926 111.162 101.315 109.703 99.9402C107.956 98.2952 105.633 97.5554 104.806 93.6887Z" fill="#80CC28"/>
<path d="M107.612 83.5586C107.612 83.5586 106.712 86.4982 108.257 91.3699C109.263 94.531 110.556 94.9106 111.498 97.5411C112.3 99.7775 111.429 101.547 111.429 101.547C111.429 101.547 112.053 99.9794 111.31 97.8331C110.676 95.9935 108.697 95.1418 107.627 92.426C106.199 88.8026 106.592 83.8409 106.592 83.8409L107.612 83.5586Z" fill="#6CAD21"/>
<path d="M16.5586 76.1632C18.546 79.3997 20.7877 82.4439 23.2438 85.2497C25.7087 88.0506 28.3881 90.613 31.2487 92.898C36.9678 97.468 43.4231 100.919 50.2321 102.933C53.6388 103.934 57.1251 104.576 60.6357 104.844L61.9511 104.929C62.1699 104.941 62.3888 104.958 62.6076 104.968L63.2686 104.978L64.5862 104.995C64.8073 104.995 65.0262 105.007 65.245 104.995L67.217 104.914C67.6547 104.897 68.0946 104.888 68.5301 104.834C69.4056 104.746 70.2788 104.676 71.1498 104.574C78.118 103.683 84.9137 101.349 91.0948 97.7649C97.2804 94.1853 102.843 89.3476 107.441 83.5925C112.05 77.8447 115.654 71.1479 118.059 63.9863C120.469 56.8223 121.647 49.1861 121.585 41.5792C121.488 49.1886 120.152 56.759 117.617 63.7989C115.085 70.8389 111.385 77.3556 106.736 82.8917C102.098 88.4399 96.5487 93.0318 90.4471 96.3681C84.35 99.7116 77.709 101.804 70.9531 102.495C70.1064 102.573 69.2597 102.62 68.4152 102.685C67.9929 102.727 67.5685 102.724 67.1462 102.729L65.2384 102.758C65.0284 102.768 64.8161 102.749 64.6061 102.741L62.7049 102.668C62.4927 102.656 62.2827 102.632 62.0727 102.615L60.8081 102.503C57.4412 102.16 54.1097 101.459 50.871 100.42C44.3914 98.327 38.2987 94.8715 32.9421 90.3794C30.2628 88.1357 27.7624 85.6342 25.4788 82.9184C23.1995 80.193 21.1392 77.2534 19.322 74.1459C16.154 68.7242 13.7355 62.7842 12.2167 56.5886L15.8003 56.5886L9.82034 47.3173L4.75781 56.5886L8.34358 56.5886C10.09 63.5726 12.8954 70.2037 16.5586 76.1632Z" fill="#A3F182"/>
<path d="M129.48 7.80062C131.284 11.7988 128.649 15.5463 128.649 15.5463C128.649 15.5463 123.325 16.0962 121.188 11.4532C118.148 4.85128 121.643 0.332384 121.643 0.332384C121.643 0.332384 121.709 1.97009 123.416 2.94103C125.459 4.10665 127.873 4.24292 129.48 7.80062Z" fill="#80CC28"/>
<path d="M128.85 18.3665C128.85 18.3665 129.117 15.2785 126.601 10.9251C124.968 8.09741 123.63 8.05361 122.167 5.72968C120.922 3.75373 121.404 1.81428 121.404 1.81428C121.404 1.81428 121.121 3.49335 122.288 5.39873C123.29 7.02914 125.392 7.36008 126.995 9.73512C129.137 12.9059 129.783 17.836 129.783 17.836L128.85 18.3665Z" fill="#6CAD21"/>
<path d="M180.855 12.1176C179.522 10.4994 178.063 9.01256 176.5 7.67174C174.935 6.33822 173.266 5.15557 171.517 4.13839C168.022 2.1089 164.2 0.760777 160.282 0.240021C158.326 -0.0154897 156.347 -0.0690254 154.384 0.0891479L153.65 0.157284C153.526 0.169451 153.403 0.176752 153.281 0.193786L152.916 0.244888L152.185 0.349526C152.063 0.368993 151.939 0.38116 151.82 0.407928L151.457 0.478498L150.732 0.622071C150.491 0.670739 150.248 0.714541 150.011 0.782678C149.534 0.906782 149.054 1.02115 148.579 1.15499C144.783 2.25247 141.186 4.13595 138.02 6.657C134.85 9.1756 132.116 12.3366 129.985 15.9211C127.842 19.5007 126.328 23.5183 125.51 27.6916C124.69 31.8625 124.584 36.1916 125.163 40.3942C124.672 36.177 124.869 31.8723 125.767 27.7573C126.664 23.64 128.247 19.7148 130.424 16.2472C132.595 12.7747 135.339 9.7499 138.478 7.37243C141.615 4.99252 145.146 3.25748 148.837 2.28654C149.3 2.16974 149.766 2.06997 150.228 1.96046C150.46 1.90206 150.694 1.86556 150.929 1.82419L151.983 1.64411C152.098 1.61978 152.218 1.61248 152.335 1.59788L153.04 1.51514L153.394 1.47134C153.513 1.46161 153.63 1.45674 153.747 1.44701L154.455 1.39834C156.345 1.29613 158.242 1.39347 160.11 1.68548C163.848 2.27924 167.472 3.66143 170.761 5.67875C172.406 6.68863 173.971 7.85425 175.43 9.15857C176.887 10.4678 178.24 11.9132 179.469 13.4755C181.613 16.1985 183.38 19.2744 184.666 22.5692L182.681 22.8807L186.658 27.4897L188.798 21.9195L186.811 22.231C185.343 18.52 183.314 15.0962 180.855 12.1176Z" fill="#A3F182"/>
<path d="M31.9701 77.8315L51.4199 77.8315L51.4199 76.8581C49.8724 74.8311 48.6212 67.6135 48.6212 55.6896L48.6212 23.0864L53.2614 23.0864C59.5995 23.0864 63.6518 26.9799 63.8728 36.4703L64.9782 36.4703L64.9782 21.0594L18.5599 21.0594L18.5599 36.4703L19.6653 36.4703C19.8112 26.9799 23.9386 23.0864 30.2015 23.0864L34.7689 23.0864L34.7689 55.6896C34.7689 67.6135 33.5176 74.8311 31.9701 76.8581L31.9701 77.8315Z" fill="white"/>
<path d="M83.4667 78.8853C100.266 78.8853 111.686 72.3978 111.686 60.3936C111.686 40.3615 81.6981 40.2009 81.6981 28.6032C81.6981 24.7097 85.0142 21.7092 89.8777 21.7092C95.5504 21.7092 98.6454 24.79 98.6454 28.1165C98.6454 30.3869 97.4671 32.1706 95.1812 32.1706C92.8246 32.1706 91.2771 30.4672 91.5711 28.3598L90.762 28.3598C90.3928 28.9268 90.0988 29.9805 90.0988 30.7933C90.0988 34.2804 93.3397 37.2808 97.6882 37.2808C102.107 37.2808 105.35 34.604 105.35 30.3066C105.35 24.5466 98.7184 20.0058 86.9308 20.0058C77.4248 20.0058 69.6166 23.7363 69.6166 31.0366C69.6166 45.1481 97.4671 43.9314 97.4671 61.367C97.4671 69.4776 91.7922 77.1016 81.5522 77.1016C73.2267 77.1016 67.1848 72.7214 67.1848 65.5038C67.1848 60.3936 70.6468 56.2592 75.5833 56.2592C80.2258 56.2592 83.7629 59.8266 83.7629 64.6935C83.7629 68.4239 81.8462 71.3441 78.7512 71.3441C76.0984 71.3441 74.5531 69.3973 74.5531 66.6402C74.5531 64.3698 75.8795 61.9364 78.3842 62.26L78.3842 61.53C78.2361 61.2867 76.9097 60.7197 75.8795 60.7197C72.7845 60.7197 70.8678 63.6398 70.8678 66.1535C70.8678 69.3973 73.9628 72.8844 78.6053 72.8844C84.9412 72.8844 89.3626 67.4506 89.3626 60.3133C89.3626 52.2026 82.9516 46.3648 74.699 46.3648C66.5945 46.3648 60.1857 52.2026 60.1857 60.4763C60.1857 71.4244 69.0993 78.8853 83.4667 78.8853Z" fill="white"/>
<path d="M120.891 77.8317L130.543 77.8317L139.09 46.9319L139.974 46.9319L147.636 77.8317L157.585 77.8317L164.732 52.6894C168.046 40.768 171.877 36.1445 174.015 34.2804L174.015 33.3071L165.983 33.3071L165.983 34.2804C166.94 36.3075 166.277 40.8483 163.109 52.6894L159.057 66.8009L158.248 66.8009L154.268 52.0421C151.47 41.0916 152.058 36.9572 153.311 34.2804L153.311 33.3071L137.984 33.3071L137.984 34.2804C139.165 36.9572 138.869 41.0113 136.07 52.0421L132.091 66.8009L131.282 66.8009L127.45 52.6894C124.428 40.768 124.722 36.3075 125.682 34.2804L125.682 33.3071L106.672 33.3071L106.672 34.1977C109.84 36.2272 112.566 46.6886 114.261 52.6894L120.891 77.8317Z" fill="white"/>
<path d="M182.554 78.8853C188.963 78.8853 194.048 74.7509 195.595 68.9106L196.406 68.9106C197.291 74.5075 200.459 78.8853 205.689 78.8853C210.774 78.8853 213.279 74.0208 213.721 68.1806L212.982 68.1806C212.615 69.884 211.879 71.181 210.405 71.181C208.194 71.181 207.089 68.7476 206.5 65.0171L203.921 48.6352C202.227 38.3345 196.406 32.1706 185.943 32.1706C178.429 32.1706 172.533 36.2271 172.533 41.7413C172.533 45.8781 175.849 49.1219 179.901 49.1219C183.88 49.1219 186.312 45.8781 186.312 42.6344C186.312 41.7413 186.091 40.6876 185.649 40.0379L184.838 40.2009C185.353 42.228 183.659 43.688 181.376 43.688C179.311 43.688 177.469 41.9846 177.469 39.3078C177.469 36.2271 179.607 34.037 183.29 34.037C187.933 34.037 190.807 37.5241 191.764 43.4447L193.678 55.6898L192.869 55.6898C191.028 52.7721 186.827 50.4992 182.554 50.4992C174.156 50.4992 168.629 56.1764 168.629 64.6935C168.629 73.2908 174.156 78.8853 182.554 78.8853ZM187.491 73.5342C182.923 73.5342 179.974 69.6407 179.974 63.9634C179.974 58.2862 182.923 54.473 187.491 54.473C191.837 54.473 195.005 58.5296 195.005 63.9634C195.005 69.4776 191.837 73.5342 187.491 73.5342Z" fill="white"/>
<path d="M208.191 96.0801L224.548 96.0801L224.548 95.1871C223.222 93.16 222.117 86.2661 222.117 74.5077L222.117 67.4507L222.928 67.4507C225.285 75.155 230.369 78.8854 237.441 78.8854C248.42 78.8854 254.758 68.1004 254.758 55.5293C254.758 43.0384 248.42 32.1707 237.441 32.1707C230.369 32.1707 225.433 35.9011 223.001 43.4448L222.117 43.4448L222.117 32.0101L221.381 32.0101C218.213 34.4411 212.613 35.6578 208.046 35.8208L208.046 36.6312C209.224 37.8479 210.329 40.768 210.55 48.392L210.55 74.2643C210.55 86.0227 209.518 93.16 208.191 95.1871L208.191 96.0801ZM232.801 73.858C226.907 73.858 222.707 67.0443 222.707 55.5293C222.707 44.0921 226.907 37.2809 232.801 37.2809C238.547 37.2809 242.82 44.0921 242.82 55.5293C242.82 67.0443 238.547 73.858 232.801 73.858Z" fill="white"/>
<path d="M93.9791 88.2867C95.0757 90.7226 93.4773 93.0076 93.4773 93.0076C93.4773 93.0076 90.2452 93.3385 88.9453 90.5084C87.0972 86.4859 89.2195 83.7337 89.2195 83.7337C89.2195 83.7337 89.2593 84.7314 90.2961 85.3228C91.5363 86.0333 93.002 86.1185 93.9791 88.2867Z" fill="#80CC28"/>
<path d="M93.5979 94.7253C93.5979 94.7253 93.7593 92.8443 92.2295 90.1894C91.2368 88.4665 90.4255 88.4373 89.5368 87.021C88.7807 85.8165 89.0703 84.6338 89.0703 84.6338C89.0703 84.6338 88.9001 85.6583 89.6098 86.819C90.2177 87.8143 91.4955 88.0163 92.4704 89.4642C93.7703 91.3988 94.166 94.4017 94.166 94.4017L93.5979 94.7253Z" fill="#6CAD21"/>
</g>
<defs>
<filter id="filter0_d_190_7774" x="0.757812" y="0" width="258" height="113" filterUnits="userSpaceOnUse" color-interpolation-filters="sRGB">
<feFlood flood-opacity="0" result="BackgroundImageFix"/>
<feColorMatrix in="SourceAlpha" type="matrix" values="0 0 0 0 0 0 0 0 0 0 0 0 0 0 0 0 0 0 127 0" result="hardAlpha"/>
<feOffset dy="4"/>
<feGaussianBlur stdDeviation="2"/>
<feComposite in2="hardAlpha" operator="out"/>
<feColorMatrix type="matrix" values="0 0 0 0 0 0 0 0 0 0 0 0 0 0 0 0 0 0 0.04 0"/>
<feBlend mode="normal" in2="BackgroundImageFix" result="effect1_dropShadow_190_7774"/>
<feBlend mode="normal" in="SourceGraphic" in2="effect1_dropShadow_190_7774" result="shape"/>
</filter>
</defs>
</svg>
