<svg width="55" height="21" viewBox="0 0 55 21" fill="none" xmlns="http://www.w3.org/2000/svg">
<path d="M22.5128 18.8103C22.3122 17.9825 23.0342 17.4133 23.0342 17.4133C23.0342 17.4133 24.1783 17.5658 24.42 18.5289C24.7638 19.8991 23.8264 20.5698 23.8264 20.5698C23.8264 20.5698 23.8856 20.2629 23.5705 20.0011C23.1932 19.6877 22.6914 19.5468 22.5128 18.8103Z" fill="#80CC28"/>
<path d="M23.1158 16.8498C23.1158 16.8498 22.9244 17.4407 23.2582 18.3686C23.4754 18.9707 23.7548 19.043 23.9582 19.5441C24.1315 19.9701 23.9434 20.307 23.9434 20.307C23.9434 20.307 24.0781 20.0085 23.9176 19.5997C23.7806 19.2493 23.3532 19.0871 23.1221 18.5698C22.8136 17.8796 22.8986 16.9345 22.8986 16.9345L23.1158 16.8498Z" fill="#6CAD21"/>
<path d="M3.45131 15.4721C3.88059 16.0886 4.36479 16.6684 4.89531 17.2029C5.42774 17.7364 6.00648 18.2245 6.62438 18.6597C7.85971 19.5302 9.25405 20.1874 10.7248 20.5712C11.4606 20.7617 12.2137 20.8841 12.972 20.9351L13.2561 20.9513C13.3034 20.9536 13.3506 20.9569 13.3979 20.9587L13.5407 20.9606L13.8253 20.9638C13.873 20.9638 13.9203 20.9661 13.9676 20.9638L14.3935 20.9485C14.4881 20.9453 14.5831 20.9434 14.6772 20.9332C14.8663 20.9165 15.0549 20.9031 15.243 20.8836C16.7481 20.714 18.216 20.2695 19.5511 19.5867C20.8872 18.9049 22.0886 17.9834 23.0819 16.8872C24.0775 15.7924 24.8558 14.5168 25.3754 13.1527C25.8959 11.7881 26.1504 10.3336 26.137 8.88469C26.116 10.3341 25.8276 11.7761 25.2799 13.117C24.7331 14.458 23.9338 15.6992 22.9295 16.7537C21.9277 17.8105 20.7292 18.6852 19.4112 19.3207C18.0942 19.9575 16.6598 20.3561 15.2005 20.4878C15.0176 20.5026 14.8347 20.5114 14.6523 20.5239C14.5611 20.5318 14.4694 20.5314 14.3782 20.5323L13.9661 20.5378C13.9208 20.5397 13.8749 20.536 13.8296 20.5346L13.4189 20.5207C13.3731 20.5184 13.3277 20.5137 13.2823 20.5105L13.0092 20.4892C12.282 20.4238 11.5623 20.2903 10.8628 20.0924C9.4632 19.6938 8.14717 19.0356 6.99016 18.18C6.41141 17.7526 5.87135 17.2761 5.37807 16.7588C4.88576 16.2397 4.44072 15.6798 4.0482 15.0879C3.36392 14.0552 2.84152 12.9237 2.51347 11.7436H3.28752L1.99585 9.97765L0.902344 11.7436H1.67687C2.05411 13.0739 2.66007 14.337 3.45131 15.4721Z" fill="#A3F182"/>
<path d="M27.8423 2.45067C28.232 3.21223 27.6628 3.92604 27.6628 3.92604C27.6628 3.92604 26.5129 4.03079 26.0512 3.14641C25.3946 1.8889 26.1495 1.02815 26.1495 1.02815C26.1495 1.02815 26.1639 1.3401 26.5325 1.52504C26.9737 1.74706 27.4952 1.77302 27.8423 2.45067Z" fill="#80CC28"/>
<path d="M27.7062 4.46323C27.7062 4.46323 27.764 3.87503 27.2206 3.04581C26.8677 2.50721 26.5788 2.49886 26.2627 2.05621C25.9938 1.67984 26.0979 1.31042 26.0979 1.31042C26.0979 1.31042 26.0368 1.63024 26.2889 1.99317C26.5052 2.30373 26.9594 2.36676 27.3056 2.81915C27.7683 3.42311 27.8423 4.24586 27.8423 4.24586L27.7062 4.46323Z" fill="#6CAD21"/>
<path d="M38.9394 3.27296C38.6514 2.96473 38.3363 2.68152 37.9987 2.42613C37.6606 2.17212 37.3001 1.94686 36.9224 1.75311C36.1674 1.36654 35.3418 1.10975 34.4956 1.01056C34.073 0.961893 33.6457 0.951696 33.2216 0.981824L33.0631 0.994802C33.0364 0.99712 33.0096 0.99851 32.9834 1.00175L32.9046 1.01149L32.7465 1.03142C32.7202 1.03513 32.6935 1.03745 32.6677 1.04254L32.5894 1.05599L32.4328 1.08333C32.3807 1.0926 32.3282 1.10095 32.2771 1.11392C32.174 1.13756 32.0704 1.15935 31.9677 1.18484C31.1478 1.39389 30.3709 1.75264 29.6871 2.23284C29.0023 2.71258 28.4116 3.31468 27.9513 3.99743C27.4886 4.67926 27.1615 5.44452 26.9848 6.23944C26.8077 7.0339 26.7848 7.85849 26.9099 8.65897C26.8039 7.85571 26.8464 7.03575 27.0402 6.25195C27.2341 5.46769 27.576 4.72005 28.0463 4.05954C28.5153 3.39811 29.1079 2.82197 29.7859 2.36912C30.4635 1.9158 31.2261 1.58532 32.0236 1.40038C32.1234 1.37813 32.2241 1.35912 32.3239 1.33826C32.374 1.32714 32.4247 1.32019 32.4753 1.31231L32.7031 1.27801C32.7279 1.27337 32.7537 1.27198 32.779 1.2692L32.9313 1.25344L33.0077 1.2451C33.0335 1.24324 33.0588 1.24232 33.0841 1.24046L33.2369 1.23119C33.6452 1.21173 34.0549 1.23027 34.4584 1.28589C35.2659 1.39898 36.0485 1.66226 36.7591 2.04651C37.1143 2.23887 37.4524 2.46089 37.7676 2.70933C38.0822 2.9587 38.3745 3.23403 38.64 3.5316C39.1032 4.05027 39.4847 4.63615 39.7626 5.26375L39.3338 5.32308L40.1928 6.20097L40.6551 5.13999L40.2258 5.19932C39.9087 4.49246 39.4704 3.8403 38.9394 3.27296Z" fill="#A3F182"/>
<path d="M6.7802 15.7899H10.9814V15.6045C10.6471 15.2184 10.3768 13.8436 10.3768 11.5724V5.36226H11.3791C12.7482 5.36226 13.6234 6.10388 13.6712 7.91157H13.9099V4.97615H3.88361V7.91157H4.12236C4.15388 6.10388 5.04539 5.36226 6.39819 5.36226H7.38473V11.5724C7.38473 13.8436 7.11446 15.2184 6.7802 15.6045V15.7899Z" fill="white"/>
<path d="M17.9035 15.9906C21.5321 15.9906 23.9989 14.7549 23.9989 12.4684C23.9989 8.65275 17.5214 8.62216 17.5214 6.41306C17.5214 5.67144 18.2377 5.09994 19.2882 5.09994C20.5135 5.09994 21.1821 5.68674 21.1821 6.32036C21.1821 6.75282 20.9275 7.09257 20.4338 7.09257C19.9248 7.09257 19.5614 6.68942 19.6249 6.28802C19.5452 6.39602 19.4083 6.76776 19.4083 6.92257C19.4083 7.58678 20.036 8.06595 20.9753 8.06595C21.9298 8.06595 22.6304 7.55609 22.6304 6.73752C22.6304 5.64039 21.1978 4.77548 18.6517 4.77548C16.5984 4.77548 14.9118 5.48604 14.9118 6.87658C14.9118 9.56448 20.9275 9.33273 20.9275 12.6538C20.9275 14.1987 19.7018 15.6509 17.4899 15.6509C15.6916 15.6509 14.3866 14.8165 14.3866 13.4418C14.3866 12.4684 15.1344 11.6809 16.2006 11.6809C17.2034 11.6809 17.9674 12.3604 17.9674 13.2874C17.9674 13.998 17.5534 14.5542 16.8849 14.5542C16.3119 14.5542 15.9781 14.1834 15.9781 13.6582C15.9781 13.2258 16.2646 12.7623 16.8057 12.8239C16.7737 12.7775 16.5988 12.6336 16.3763 12.6336C15.7078 12.6336 15.1821 13.0867 15.1821 13.5655C15.1821 14.1834 15.8506 14.8476 16.8534 14.8476C18.222 14.8476 19.177 13.8126 19.177 12.4531C19.177 10.9082 17.7922 9.79624 16.0096 9.79624C14.2591 9.79624 12.8748 10.9082 12.8748 12.4841C12.8748 14.5695 14.8001 15.9906 17.9035 15.9906Z" fill="white"/>
<path d="M25.9872 15.7899H28.072L30.1091 9.85147L31.7641 15.7899H33.9129L35.4567 11.0009C36.1725 8.73018 37.3553 7.70066 37.817 7.34561L35.5338 7.30905C35.7406 7.69515 33.9187 13.4796 33.9187 13.4796L33.1967 10.8776C32.5921 8.79182 32.7191 8.00432 32.9899 7.49445L33.102 7.30905H32.9899H29.6793H29.5873L29.6793 7.49445C29.9343 8.00432 29.8703 8.77653 29.2658 10.8776L28.4062 13.6888L27.4039 11.0009C26.7512 8.73018 26.9977 7.69515 27.205 7.30905H23.1466C23.8308 7.69562 24.1888 9.8579 24.5551 11.0009L25.9872 15.7899Z" fill="white"/>
<path d="M39.3063 15.9906C40.6906 15.9906 41.9642 15.2031 42.2984 14.0907C42.4894 15.1568 43.1737 15.9906 44.3035 15.9906C45.4018 15.9906 45.9428 15.0641 46.0383 13.9516H45.8788C45.7996 14.2761 45.6405 14.5231 45.322 14.5231C44.8445 14.5231 44.6058 14.0596 44.4788 13.3491L43.9215 10.2287C43.5557 8.26665 42.2984 7.09257 40.0384 7.09257C38.4153 7.09257 37.1418 7.86525 37.1418 8.91556C37.1418 9.70353 37.858 10.3214 38.7333 10.3214C39.5928 10.3214 40.1181 9.70354 40.1181 9.08567C40.1181 8.91556 40.0704 8.71486 39.9749 8.59111L39.9828 8.61472C40.094 9.00082 39.5451 9.28637 39.0518 9.28637C38.6058 9.28637 38.2081 8.96192 38.2081 8.45205C38.2081 7.86525 38.6698 7.44809 39.4653 7.44809C40.4681 7.44809 41.0889 8.1123 41.2957 9.24002L41.7092 11.5724C41.3114 11.0167 40.2294 10.5837 39.3063 10.5837C37.4923 10.5837 36.2985 11.6651 36.2985 13.2874C36.2985 14.925 37.4923 15.9906 39.3063 15.9906ZM40.3726 14.9713C39.3861 14.9713 38.7491 14.2297 38.7491 13.1484C38.7491 12.067 39.3861 11.3407 40.3726 11.3407C41.3114 11.3407 41.9957 12.1133 41.9957 13.1484C41.9957 14.1987 41.3114 14.9713 40.3726 14.9713Z" fill="white"/>
<path d="M44.844 19.2658H48.3771H48.5068L48.3771 19.0957C48.0906 18.7096 47.8519 17.3965 47.8519 15.1568V13.8126C48.3609 15.2801 49.6344 15.9906 51.162 15.9906C53.5333 15.9906 54.9023 13.9364 54.9023 11.5418C54.9023 9.16264 53.5333 7.09259 51.162 7.09259C49.6344 7.09259 48.3771 7.80316 47.8519 9.24005V7.062V6.9077C47.1676 7.37075 45.7339 7.73759 44.7474 7.76865H44.5308L44.7474 7.98016C45.0019 8.21192 45.3058 8.73018 45.3535 10.1824V15.1104C45.3535 17.3501 45.1305 18.7096 44.844 19.0957L44.7238 19.2658H44.844ZM50.1597 15.033C48.8866 15.033 47.9794 13.7352 47.9794 11.5418C47.9794 9.36334 48.8866 8.06597 50.1597 8.06597C51.4007 8.06597 52.3238 9.36334 52.3238 11.5418C52.3238 13.7352 51.4007 15.033 50.1597 15.033Z" fill="white"/>
<path d="M20.1742 17.7814C20.411 18.2453 20.0658 18.6806 20.0658 18.6806C20.0658 18.6806 19.3676 18.7436 19.0869 18.2045C18.6876 17.4384 19.1461 16.9141 19.1461 16.9141C19.1461 16.9141 19.1547 17.1042 19.3786 17.2168C19.6465 17.3521 19.9631 17.3684 20.1742 17.7814Z" fill="#80CC28"/>
<path d="M20.0787 18.9727C20.0787 18.9727 20.1267 18.6495 19.7962 18.1438C19.5818 17.8156 19.4066 17.81 19.2146 17.5403C19.0513 17.3108 19.1138 17.0856 19.1138 17.0856C19.1138 17.0856 19.0771 17.2807 19.2304 17.5018C19.3617 17.6914 19.6377 17.7299 19.8483 18.0056C20.129 18.3741 20.201 18.9031 20.201 18.9031L20.0787 18.9727Z" fill="#6CAD21"/>
</svg>
